<?xml version="1.0" encoding="utf-8"?>
<!-- Generator: Adobe Illustrator 26.0.0, SVG Export Plug-In . SVG Version: 6.00 Build 0)  -->
<svg version="1.1" id="Capa_1" xmlns="http://www.w3.org/2000/svg" xmlns:xlink="http://www.w3.org/1999/xlink" x="0px" y="0px"
	 viewBox="0 0 205.2 205.2" style="enable-background:new 0 0 205.2 205.2;" xml:space="preserve">
<style type="text/css">
	.st0{fill:#AAAAAA;}
</style>
<g>
	<g>
		<g>
			<g>
				<path class="st0" d="M102.6,205.2C46,205.2,0,159.2,0,102.6C0,46,46,0,102.6,0c56.6,0,102.6,46,102.6,102.6
					C205.2,159.2,159.2,205.2,102.6,205.2z M102.6,8.6c-51.8,0-94,42.2-94,94s42.2,94,94,94c51.8,0,94-42.2,94-94
					C196.6,50.8,154.4,8.6,102.6,8.6z"/>
			</g>
		</g>
		<g>
			<g>
				<rect x="5.7" y="98.3" class="st0" width="193.7" height="8.6"/>
			</g>
		</g>
		<g>
			<g>
				<path class="st0" d="M104.9,62.1c-48.6,0-84.9-10.7-87.2-11.4l2.5-8.3c0.8,0.2,82.7,24.3,164.4,0l2.5,8.3
					C158.4,59.3,130,62.1,104.9,62.1z"/>
			</g>
		</g>
		<g>
			<g>
				<path class="st0" d="M20.4,160.6l-2.5-8.3c84.3-25.1,165.9-1,169.3,0l-2.5,8.3C184,160.3,102.1,136.2,20.4,160.6z"/>
			</g>
		</g>
		<g>
			<g>
				<path class="st0" d="M69.4,196.2C26.9,96.7,63.6,8.6,64,7.7l7.9,3.4c-0.4,0.8-35.5,85.8,5.4,181.7L69.4,196.2z"/>
			</g>
		</g>
		<g>
			<g>
				<path class="st0" d="M135.2,196.2l-7.9-3.4c41-95.9,5.8-180.8,5.4-181.7l7.9-3.4C141,8.6,177.6,96.7,135.2,196.2z"/>
			</g>
		</g>
		<g>
			<g>
				<rect x="98.3" y="5.7" class="st0" width="8.6" height="197.3"/>
			</g>
		</g>
	</g>
</g>
</svg>
