<?xml version="1.0" encoding="utf-8"?>
<!-- Generator: Adobe Illustrator 26.0.0, SVG Export Plug-In . SVG Version: 6.00 Build 0)  -->
<svg version="1.1" id="Layer_1" xmlns="http://www.w3.org/2000/svg" xmlns:xlink="http://www.w3.org/1999/xlink" x="0px" y="0px"
	 viewBox="0 0 750 500" style="enable-background:new 0 0 750 500;" xml:space="preserve">
<style type="text/css">
	.st0{fill:#DCDCEB;}
	.st1{fill:#F5F5F5;}
	.st2{display:none;}
	.st3{display:inline;fill:#F5F5F5;}
	.st4{fill:#263238;}
	.st5{fill:#EAF7F8;}
	.st6{fill:#9F6B5B;}
	.st7{fill:#774F44;}
	.st8{fill:#E0E0E0;}
	.st9{fill:#6BCBCD;}
	.st10{opacity:0.2;}
	.st11{fill:#4E509B;}
	.st12{fill:#FFFFFF;}
	.st13{opacity:0.3;}
	.st14{opacity:0.3;enable-background:new    ;}
	.st15{fill:#FFBE9D;}
	.st16{fill:#EB996E;}
</style>
<g id="Background_Complete">
	<path class="st0" d="M242.6,69c-2.1,0.5-4.1,1.5-5.7,2.8c-0.6,0.4-1.2,0.8-1.9,1.1l-7.4-30.3c-0.5-2.2-2.8-3.6-5-3L191,47.2
		l0.9,3.6c0.2,0.8,0.6,1.6,1.1,2.3c1,1.4,1.8,3,2.2,4.8c1.9,7.6-2.9,15.2-10.7,16.8c-6.8,1.4-13.7-2.7-15.9-9.3
		c-0.7-2.3-0.8-4.7-0.4-6.9c0.2-1,0.2-2,0-3l-0.6-2.5l-32,7.7c-2.7,0.7-4.4,3.4-3.7,6.2l6.9,28.1l-2.2,0.5c-0.2,0.1-0.5,0.1-0.8,0.2
		c-3.2-1.3-6.8-1.7-10.4-0.8c-9,2.2-14.5,11.3-12.3,20.3s11.3,14.5,20.3,12.3c2.9-0.7,5.5-2.2,7.6-4.1c0.4-0.2,0.8-0.4,1.3-0.5
		l2.8-0.7l7.7,31.4c0.7,2.7,3.4,4.4,6.2,3.7l87.3-21.4c2.2-0.5,3.6-2.8,3-5L241.5,99c0.6,0,1.1,0.1,1.7,0.2c3,0.6,6.2,0.4,9.4-0.9
		c6.2-2.7,10-9.4,9.1-16.1C260.4,72.8,251.4,66.9,242.6,69z"/>
	<path class="st0" d="M631.3,236.6c1.3,0.6,2.6,0.9,3.9,0.9c0.5,0,0.9,0.1,1.3,0.2l-8.3,17.8c-0.6,1.3,0,2.9,1.3,3.5l18.6,8.6l1-2.1
		c0.2-0.5,0.4-1,0.4-1.5c0.1-1.1,0.3-2.2,0.8-3.2c2.1-4.5,7.4-6.3,11.9-4.1c3.9,2,5.7,6.7,4.1,10.8c-0.6,1.4-1.4,2.6-2.5,3.5
		c-0.5,0.4-0.9,0.9-1.2,1.5l-0.7,1.5l18.8,8.8c1.6,0.7,3.5,0,4.3-1.6l7.7-16.5l1.3,0.6c0.1,0.1,0.3,0.1,0.4,0.2
		c1,1.9,2.7,3.5,4.8,4.5c5.3,2.5,11.6,0.2,14.1-5.1c2.5-5.3,0.2-11.6-5.1-14.1c-1.7-0.8-3.6-1.1-5.4-0.9c-0.3-0.1-0.6-0.2-0.8-0.3
		l-1.6-0.8l8.6-18.5c0.7-1.6,0-3.5-1.6-4.3L656,202.1c-1.3-0.6-2.9,0-3.5,1.3l-8.7,18.8c-0.3-0.2-0.5-0.5-0.8-0.8
		c-1.2-1.5-2.9-2.7-5-3.2c-4.1-1.1-8.6,0.7-10.8,4.4C624.1,227.8,626.1,234.2,631.3,236.6z"/>
	<path class="st1" d="M662.7,436.4c0.8-0.7,1.4-1.6,1.9-2.5c0.2-0.3,0.3-0.6,0.6-0.9l10.2,11.6c0.7,0.9,2,0.9,2.9,0.2l12.1-10.6
		l-1.2-1.4c-0.3-0.3-0.6-0.6-1-0.8c-0.8-0.4-1.5-0.9-2-1.6c-2.5-2.9-2.2-7.4,0.9-9.8c2.7-2.2,6.6-2,9.1,0.5c0.9,0.9,1.4,1.9,1.7,2.9
		c0.1,0.5,0.4,0.9,0.7,1.3l0.8,1l12.3-10.7c1-0.9,1.2-2.5,0.2-3.6l-9.4-10.8l0.8-0.7c0.1-0.1,0.2-0.2,0.3-0.2c1.7-0.2,3.4-0.8,4.7-2
		c3.5-3,3.8-8.3,0.8-11.7c-3-3.5-8.3-3.8-11.7-0.8c-1.1,1-1.9,2.2-2.4,3.5c-0.1,0.2-0.3,0.3-0.5,0.5l-1.1,0.9l-10.5-12
		c-0.9-1-2.5-1.2-3.6-0.2l-33.4,29.2c-0.9,0.7-0.9,2-0.2,2.9l10.7,12.2c-0.3,0.1-0.5,0.2-0.8,0.3c-1.5,0.4-2.8,1.2-3.9,2.5
		c-2.1,2.6-2.2,6.4-0.3,9.1C654.1,438.8,659.3,439.4,662.7,436.4z"/>
	<path class="st1" d="M543.6,90.6c-1.7-0.5-3.4-0.5-5-0.3c-0.6,0.1-1.1,0.1-1.7,0l6.6-23.7c0.5-1.7-0.5-3.6-2.3-4l-24.7-6.8
		l-0.8,2.8c-0.2,0.6-0.2,1.3-0.2,2c0.2,1.3,0.1,2.7-0.3,4.1c-1.6,5.9-7.9,9.3-13.8,7.4c-5.2-1.7-8.4-7.2-7.3-12.5
		c0.4-1.9,1.2-3.5,2.4-4.9c0.5-0.6,0.9-1.3,1.1-2.1l0.5-2l-25-7c-2.1-0.6-4.4,0.7-5,2.8l-6.1,22l-1.7-0.5c-0.2-0.1-0.4-0.1-0.6-0.2
		c-1.7-2.1-4-3.8-6.8-4.5c-7.1-2-14.4,2.2-16.3,9.2c-2,7.1,2.2,14.4,9.2,16.3c2.3,0.6,4.6,0.6,6.8,0.1c0.4,0,0.7,0.1,1.1,0.2
		l2.2,0.6l-6.8,24.5c-0.6,2.1,0.7,4.4,2.8,5l68.3,18.9c1.7,0.5,3.6-0.5,4-2.3l6.9-25c0.4,0.2,0.8,0.5,1.1,0.8c1.8,1.6,4.1,2.7,6.8,3
		c5.3,0.5,10.5-2.6,12.5-7.6C554.3,100.1,550.5,92.6,543.6,90.6z"/>
	<path class="st1" d="M32.8,346c1.5,0.6,3.1,0.8,4.6,0.7c0.5,0,1.1,0,1.6,0.1l-8,21.7c-0.6,1.6,0.2,3.4,1.8,4l22.5,8.4l1-2.6
		c0.2-0.6,0.3-1.2,0.3-1.8c0-1.3,0.2-2.6,0.6-3.8c2-5.4,8.1-8.1,13.5-5.9c4.7,2,7.3,7.4,5.8,12.3c-0.5,1.7-1.4,3.2-2.6,4.4
		c-0.5,0.5-1,1.1-1.2,1.8l-0.7,1.8l22.8,8.6c2,0.7,4.1-0.3,4.9-2.2l7.5-20.1l1.6,0.6c0.2,0.1,0.4,0.1,0.5,0.2c1.4,2.1,3.5,3.8,6,4.8
		c6.4,2.4,13.6-0.9,16-7.3s-0.9-13.6-7.3-16c-2.1-0.8-4.3-1-6.4-0.6c-0.3,0-0.7-0.1-1-0.2l-2-0.7l8.3-22.4c0.7-2-0.3-4.1-2.2-4.9
		l-62.4-23.2c-1.6-0.6-3.4,0.2-4,1.8L46,328.1c-0.3-0.2-0.7-0.5-1-0.8c-1.6-1.6-3.6-2.8-6.1-3.3c-4.9-0.9-10,1.6-12.3,6.1
		C23.5,336.3,26.5,343.7,32.8,346z"/>
</g>
<g id="Background_Simple" class="st2">
	<path class="st3" d="M550.4,60l-1.7,1.5c-14.2,12.7-20.6,32.1-16,50.5c0.6,2.4,1.4,4.7,2.3,6.9c6.8,16.2,22.3,28.5,39.7,31.5
		c10.3,1.8,21.5,0.7,30.4,6.1c11.6,7,14.7,21.9,16.7,35.2c2.1,13.3,5.2,28.2,16.8,35.2c7.3,4.3,16.5,4.4,24.7,2.4
		c21.9-5.3,38.8-24.4,45-45.9c6.2-21.4,2.7-44.7-5.6-65.4C691,89.1,669,63.6,640.1,51.2C611.4,38.9,575.6,41.1,550.4,60z"/>
	<circle class="st3" cx="151.9" cy="119.2" r="64.7"/>
</g>
<g id="Puzzle">
	<g>
		<g>
			<path class="st1" d="M358.8,297.6c5.6-0.4,10.4,1.1,15,3.3c2.1,1,4.5,1.7,6.8,1.7l6.1-0.1l0.1-67.7c0-6.4-5.2-11.6-11.6-11.6
				l-64.4,0.2V222c0-2.7,0.7-5.4,1.9-7.8c3.1-6.4,4.4-13.9,3.1-21.7c-2.7-15.6-15.7-27.8-31.6-29.5c-21.8-2.4-40.3,14.5-40.3,35.7
				c0,5.2,1.1,10,3.1,14.5c1,2.3,1.6,4.7,1.6,7.3l0.4,3h-3.9h-73.7c-6.4,0-11.6,5.2-11.6,11.6v66.2h-5.5c-2.6,0-5.1-0.7-7.4-1.8
				c-6.1-3-13.5-4.2-21-2.9c-14.8,2.5-26.3,14.9-27.9,29.9c-2.2,20.6,13.8,38.1,33.8,38.1c4.9,0,9.5-1,13.7-2.9
				c2.2-1,4.5-1.5,6.9-1.5h7.1l0.1,81c0,5.2,4.2,9.4,9.5,9.4h207.6c5.2,0,9.3-6.6,9.3-11.8V365h-8.4c-1.9,0-3.9,0.4-5.7,1.1
				c-3.6,1.5-7.6,2.3-11.7,2.3c-17.8,0-32.1-14.7-31.4-32.5C329.4,320.1,343,298.7,358.8,297.6z"/>
			<g>
				<path class="st4" d="M358.8,297.6c0,0-0.2,0-0.5,0.1c-0.4,0-0.9,0.1-1.6,0.2c-1.4,0.3-3.5,0.8-6.1,2.2
					c-5.1,2.6-11.7,8.5-16.7,18.3c-2.4,4.9-4.6,10.8-4.9,17.6c-0.1,3.4,0.3,6.9,1.4,10.4s2.9,7,5.3,10.1c2.5,3.1,5.6,5.8,9.4,7.9
					c3.7,2.1,8,3.4,12.5,3.8s9.2-0.2,13.7-1.9c2.2-1,4.7-1.5,7.2-1.4c2.5,0,5,0,7.5,0h0.2v0.2c0,11.6,0,24,0,37.1
					c0,6.5,0,13.2,0,20.1c0,3.4,0,6.9,0,10.4c0,1.8,0,3.5,0,5.3c0,0.9,0,1.8-0.2,2.7c-0.2,0.9-0.4,1.8-0.7,2.6
					c-0.7,1.7-1.6,3.3-2.9,4.6c-1.3,1.3-2.9,2.4-4.8,2.7c-1,0.1-1.9,0.1-2.8,0.1s-1.8,0-2.8,0c-1.9,0-3.7,0-5.6,0
					c-7.5,0-15.1,0-22.9,0c-15.6,0-31.7,0-48.4,0c-33.4,0-68.8,0-105.9,0c-4.6,0-9.3,0-14,0c-2.4,0-4.7,0-7.1,0
					c-2.4-0.2-4.7-1.4-6.3-3.2c-1.6-1.8-2.5-4.3-2.4-6.7c0-2.4,0-4.8,0-7.2c0-4.8,0-9.6,0-14.4c0-19.3-0.1-39-0.1-59.1l0.3,0.3
					c-1.5,0-2.9,0-4.4,0s-3-0.1-4.4,0.1c-1.5,0.2-2.9,0.5-4.3,1.1c-1.4,0.6-2.8,1.2-4.2,1.6c-5.8,1.9-12.2,2.1-18.2,0.7
					c-6-1.5-11.7-4.5-16.1-9c-2.3-2.2-4.1-4.8-5.7-7.5c-0.7-1.4-1.5-2.8-2-4.3c-0.3-0.7-0.6-1.5-0.8-2.2l-0.6-2.3
					c-1.8-7.5-1.1-15.7,2.1-22.7s8.8-12.8,15.6-16.3c3.4-1.8,7.1-2.9,10.8-3.4c3.8-0.5,7.6-0.4,11.3,0.3c1.9,0.3,3.7,0.8,5.4,1.5
					c0.9,0.3,1.8,0.7,2.6,1.1c0.9,0.4,1.7,0.8,2.5,1.1c3.5,1.4,7.2,0.9,10.9,1l-0.3,0.3c0-14.3,0-28.5,0-42.4c0-7,0-13.9,0-20.8
					c0-1.7-0.1-3.4,0.2-5.2c0.3-1.7,1-3.4,2.1-4.8c2-2.8,5.4-4.7,8.8-4.9c27.1,0,53.3,0,78.4,0l-0.2,0.3c-0.1-1-0.3-2-0.4-3l0,0l0,0
					c0-1.9-0.3-3.7-0.9-5.5c-0.3-0.9-0.7-1.7-1-2.6c-0.4-0.9-0.7-1.8-1-2.6c-1.2-3.6-1.7-7.3-1.7-11l0.1-2.8c0-0.5,0-0.9,0.1-1.4
					l0.2-1.4c0.2-0.9,0.3-1.8,0.5-2.7l0.7-2.6c0.1-0.4,0.3-0.9,0.4-1.3l0.5-1.3c0.3-0.8,0.7-1.7,1.1-2.5l1.3-2.4l1.5-2.3
					c2.1-2.9,4.5-5.6,7.3-7.8l1-0.8l1.1-0.7c0.7-0.5,1.5-1,2.2-1.4c1.6-0.8,3.1-1.7,4.8-2.2c3.2-1.4,6.7-2,10.1-2.4
					c1.7-0.1,3.4-0.3,5.1-0.1c0.9,0.1,1.7,0.1,2.6,0.2c0.8,0.1,1.7,0.3,2.5,0.4c6.6,1.3,12.8,4.4,17.7,8.8c4.8,4.4,8.4,10,10.3,16.1
					c1.9,6,2.1,12.5,0.7,18.4c-0.7,3-1.7,5.8-3,8.5c-0.6,1.3-1,2.7-1.3,4.2c-0.3,1.4-0.3,2.9-0.3,4.3l-0.2-0.2
					c17.5-0.1,33.8-0.1,49-0.2c3.8,0,7.5,0,11.1,0c0.9,0,1.8,0,2.7,0c0.9,0,1.8,0,2.7,0.1c1.8,0.2,3.5,0.8,5,1.7c3,1.8,5,5,5.5,8.4
					c0.2,1.7,0.1,3.3,0.1,4.9c0,1.6,0,3.2,0,4.8c-0.1,25.3-0.1,45.4-0.1,59.6v0.1H387c-2.5,0-4.7,0.1-6.9,0.1
					c-2.1-0.2-4-0.8-5.7-1.5c-3.3-1.5-6.1-2.5-8.4-3s-4.1-0.6-5.2-0.6c-0.6,0-1,0-1.3,0C358.9,297.6,358.8,297.6,358.8,297.6
					s0.6-0.1,1.7-0.1c1.2,0,2.9,0.1,5.2,0.5c2.3,0.5,5.2,1.4,8.4,3c1.6,0.7,3.5,1.3,5.7,1.5c2.1,0,4.4-0.1,6.9-0.1l-0.1,0.1
					c0-14.2,0-34.3,0-59.6c0-1.6,0-3.2,0-4.8s0.1-3.3-0.1-4.9c-0.4-3.3-2.4-6.4-5.4-8.1c-1.5-0.9-3.1-1.5-4.9-1.6
					c-0.9-0.1-1.8-0.1-2.7,0c-0.9,0-1.8,0-2.7,0c-3.6,0-7.4,0-11.1,0c-15.2,0.1-31.5,0.1-49,0.2h-0.2v-0.2c0-1.4,0-2.9,0.3-4.4
					s0.7-2.9,1.3-4.3c1.3-2.7,2.4-5.5,3-8.4c1.3-5.9,1.1-12.2-0.7-18.2c-1.8-6-5.4-11.5-10.1-15.9c-4.8-4.4-10.9-7.4-17.5-8.7
					c-0.8-0.1-1.7-0.3-2.5-0.4c-0.8-0.1-1.7-0.1-2.5-0.2c-1.7-0.2-3.4,0-5.1,0.1c-3.4,0.4-6.8,1-10,2.4c-1.6,0.6-3.1,1.4-4.7,2.2
					c-0.7,0.4-1.5,0.9-2.2,1.4l-1.1,0.7l-1,0.8c-2.8,2.1-5.2,4.8-7.2,7.7l-1.5,2.2l-1.2,2.4c-0.4,0.8-0.8,1.6-1.1,2.5l-0.5,1.3
					c-0.2,0.4-0.3,0.8-0.4,1.3l-0.7,2.6c-0.2,0.9-0.3,1.8-0.5,2.7l-0.2,1.3c-0.1,0.4-0.1,0.9-0.1,1.4l-0.1,2.7
					c0,3.7,0.6,7.3,1.7,10.9c0.3,0.9,0.6,1.8,1,2.6s0.8,1.7,1.1,2.6c0.6,1.8,1,3.7,1,5.6l0,0c0.1,1,0.3,2,0.4,3v0.3h-0.3
					c-25.1,0-51.3,0-78.4,0.1c-3.3,0.2-6.5,2-8.4,4.7c-1,1.3-1.7,2.9-2,4.6c-0.3,1.6-0.2,3.4-0.2,5.1c0,6.9,0,13.8,0,20.8
					c0,13.9,0,28.1,0,42.4v0.3h-0.3c-1.8,0-3.7,0-5.5,0c-1.9,0-3.8-0.4-5.5-1c-0.9-0.3-1.8-0.7-2.6-1.1s-1.7-0.7-2.6-1
					c-1.7-0.6-3.5-1.1-5.4-1.5c-3.6-0.7-7.4-0.8-11.1-0.3c-3.7,0.5-7.3,1.6-10.6,3.4c-6.7,3.4-12.2,9.2-15.4,16.1
					c-3.2,6.9-3.9,14.9-2.1,22.3l0.6,2.3c0.2,0.7,0.5,1.5,0.8,2.2c0.5,1.5,1.3,2.8,2,4.2c1.6,2.7,3.4,5.2,5.7,7.4
					c4.3,4.4,10,7.4,15.9,8.9c5.9,1.4,12.2,1.2,17.9-0.7c1.4-0.4,2.8-1,4.2-1.6s2.9-0.9,4.4-1.1s3-0.1,4.5-0.1s3,0,4.4,0h0.3v0.3
					c0,20,0.1,39.7,0.1,59.1c0,4.8,0,9.6,0,14.4c0,2.4,0,4.8,0,7.2c-0.1,2.3,0.8,4.7,2.3,6.4c1.5,1.7,3.7,2.9,6,3.1
					c2.3,0.1,4.7,0,7,0c4.7,0,9.4,0,14,0c37.1,0,72.6,0,105.9,0c16.7,0,32.8,0,48.4,0c7.8,0,15.4,0,22.9,0c1.9,0,3.7,0,5.6,0
					c0.9,0,1.9,0,2.8,0s1.9,0,2.7-0.1c1.8-0.3,3.4-1.3,4.6-2.6c1.2-1.3,2.2-2.8,2.8-4.5c0.3-0.8,0.6-1.7,0.7-2.5
					c0.1-0.9,0.2-1.7,0.2-2.6c0-1.8,0-3.5,0-5.3c0-3.5,0-7,0-10.4c0-6.9,0-13.6,0-20.1c0-13.1,0-25.4,0-37.1l0.2,0.2
					c-2.5,0-5.1,0-7.5,0c-2.5-0.1-4.9,0.4-7.1,1.3c-4.5,1.7-9.3,2.3-13.9,1.9s-8.9-1.7-12.6-3.8c-3.8-2.1-6.9-4.8-9.4-8
					c-2.5-3.1-4.3-6.6-5.4-10.1s-1.5-7.1-1.4-10.5c0.3-6.8,2.5-12.7,5-17.6c5-9.9,11.7-15.8,16.8-18.3c2.6-1.3,4.7-1.9,6.1-2.1
					c0.7-0.2,1.3-0.2,1.6-0.2C358.6,297.6,358.8,297.6,358.8,297.6z"/>
			</g>
		</g>
		<g>
			<path class="st5" d="M630.8,300.3c-5,0-9.8,1.1-14.1,3c-1.5,0.7-3.1,1.1-4.7,1.4v-71.2c0-5.2-4.2-9.5-9.5-9.5h-74.1v8.4
				c0,1.9,0.4,3.9,1.1,5.7c1.5,3.6,2.3,7.6,2.3,11.7c0,17.8-14.8,32.1-32.7,31.4c-15.8-0.6-29-13.4-30.1-29.2
				c-0.4-5.6,0.7-10.8,2.9-15.5c1-2.1,1.5-4.3,1.5-6.6V224l-75-0.2c-6.4,0-11.6,5.2-11.6,11.6l-0.1,66h-5.1c-0.6,0-1.2,0-1.8-0.1
				c-6.3-4.6-14.1-7.4-22.6-7.4c-21.2,0-38.3,17.2-38.3,38.3c0,21.2,17.2,38.3,38.3,38.3c6.9,0,13.4-1.8,19-5.1
				c1-0.2,2.1-0.3,3.1-0.3h6.6V439c0,6.4,5.2,11.6,11.6,11.6h204.9c5.2,0,9.5-4.2,9.5-9.5v-75c1.3,0.3,2.5,0.8,3.7,1.3
				c6.3,3.1,13.6,4.3,21.2,3c15.3-2.6,27.2-15.4,28.8-30.8C668,318.4,651.5,300.3,630.8,300.3z"/>
			<g>
				<path class="st4" d="M630.8,300.3c0,0,0.8,0,2.2,0.1c0.7,0,1.7,0,2.7,0.3c0.5,0.1,1.1,0.2,1.8,0.3c0.6,0.1,1.3,0.3,2,0.5
					s1.4,0.4,2.2,0.6c0.8,0.3,1.6,0.6,2.4,0.9c0.4,0.2,0.9,0.3,1.3,0.5c0.4,0.2,0.8,0.4,1.3,0.7c0.9,0.5,1.8,0.9,2.7,1.5
					c3.6,2.2,7.4,5.6,10.6,10.2c3.1,4.6,5.6,10.6,6,17.5c0,0.9,0.1,1.7,0.1,2.6s-0.1,1.8-0.1,2.7c0,0.4,0,0.9-0.1,1.3
					s-0.1,0.9-0.2,1.3c-0.1,0.5-0.1,0.9-0.2,1.4c-0.1,0.4-0.2,0.9-0.3,1.4c-0.9,3.6-2.3,7.3-4.5,10.7c-2.2,3.4-4.9,6.6-8.4,9.2
					c-3.4,2.6-7.5,4.7-11.9,6c-1.1,0.3-2.3,0.5-3.4,0.8c-1.2,0.2-2.3,0.3-3.5,0.4c-2.4,0.2-4.8,0.1-7.2-0.2
					c-2.4-0.3-4.8-0.9-7.2-1.8c-2.4-0.8-4.6-2.2-7.1-2.8l0.2-0.2c0,11.5,0,23.8,0,36.6c0,6.4,0,13.1,0,19.8c0,3.4,0,6.8,0,10.3
					c0,1.7,0,3.5,0,5.2c0,0.9,0,1.8,0,2.6c0,0.4,0,0.9,0,1.3c-0.1,0.4-0.1,0.9-0.2,1.3c-0.8,3.5-3.8,6.5-7.4,7.2
					c-0.9,0.2-1.8,0.2-2.7,0.2s-1.8,0-2.7,0c-1.8,0-3.7,0-5.5,0c-7.4,0-14.9,0-22.6,0c-15.3,0-31.2,0-47.6,0c-32.8,0-67.6,0-104,0
					c-4.6,0-9.1,0-13.7,0c-2.3,0-4.6,0-6.9,0c-1.1,0-2.3,0-3.5-0.2c-1.2-0.3-2.3-0.7-3.3-1.2c-2.1-1.2-3.8-2.9-4.9-5.1
					c-0.6-1.1-0.9-2.2-1.1-3.4c-0.2-1.2-0.2-2.4-0.2-3.6c0-4.7,0-9.4,0-14.2c0-19,0-38.3,0-57.9l0.3,0.3c-1.5,0-3.1,0-4.7,0
					c-0.8,0-1.6,0-2.5,0c-0.8,0-1.6,0.1-2.4,0.3h0.1c-4.7,2.7-10.1,4.4-15.6,4.9s-11.2-0.2-16.6-2.1c-5.3-1.9-10.3-5-14.4-9.1
					c-4-4.1-7.2-9.1-9.1-14.6c-1.3-3.9-2.1-8.1-2.1-12.2s0.6-8.3,1.9-12.2c1.2-3.9,3.2-7.6,5.6-10.9c1.2-1.7,2.6-3.2,4-4.7l2.3-2.1
					c0.8-0.7,1.6-1.2,2.4-1.9c3.3-2.4,7-4.2,10.8-5.5c3.9-1.2,7.9-1.7,11.9-1.8c8.1,0,16,2.7,22.4,7.4h-0.1c2.3,0.1,4.6,0,6.9,0.1
					l-0.3,0.3c0-14.1,0-28,0-41.7c0-6.9,0-13.7,0-20.4v-2.5c0-0.8,0-1.7,0.1-2.6c0.2-1.7,0.7-3.4,1.6-4.8c1.7-2.9,4.8-5.1,8.2-5.6
					c1.7-0.3,3.4-0.1,5-0.2c1.7,0,3.3,0,5,0c3.3,0,6.6,0,9.9,0c6.5,0,13,0,19.4,0.1c12.8,0,25.4,0.1,37.8,0.1h0.2v0.2
					c0,1.8,0,3.5,0,5.3s-0.2,3.6-0.7,5.2c-0.3,0.8-0.6,1.7-1,2.4c-0.4,0.8-0.7,1.6-1,2.4c-0.6,1.6-1,3.3-1.3,5
					c-1.2,6.7-0.1,13.8,3,19.7c1.5,2.9,3.5,5.7,5.9,8s5,4.2,7.9,5.7c5.8,3,12.4,3.9,18.6,3s12-3.7,16.5-7.9c2.2-2.1,4.2-4.4,5.7-7
					s2.7-5.3,3.4-8.2c1.5-5.7,1.3-11.7-0.4-17.1c-0.4-1.4-1-2.6-1.4-4s-0.6-2.8-0.6-4.2c0-2.8,0-5.6,0-8.3v-0.2h0.2
					c19.5,0,37.6,0,54.2,0c4.2,0,8.2,0,12.2,0c2,0,3.9,0,5.9,0c1,0,1.9,0,2.9,0.1s1.9,0.4,2.8,0.8c1.8,0.8,3.2,2.1,4.2,3.6
					c1,1.6,1.5,3.4,1.5,5.2c0,3.6,0,7.1,0,10.4c0,27-0.1,47.6-0.1,60.7l-0.1-0.1c3.3-0.4,5.8-2.1,8.2-2.7c2.3-0.8,4.3-1.1,5.9-1.3
					c1.6-0.2,2.8-0.3,3.6-0.3C630.4,300.3,630.8,300.3,630.8,300.3s-0.4,0-1.2,0s-2,0.1-3.6,0.3c-1.6,0.2-3.6,0.6-5.9,1.4
					c-2.4,0.7-4.9,2.3-8.2,2.7h-0.1v-0.1c0-13.1,0-33.7-0.1-60.7c0-3.4,0-6.9,0-10.4c0-1.8-0.5-3.6-1.5-5.1s-2.4-2.8-4.1-3.5
					c-0.9-0.4-1.8-0.6-2.7-0.7c-0.9-0.1-1.9-0.1-2.9-0.1c-1.9,0-3.9,0-5.9,0c-4,0-8,0-12.2,0c-16.6,0-34.7,0-54.2,0l0.2-0.2
					c0,2.7,0,5.5,0,8.3c0,1.4,0.2,2.8,0.6,4.1c0.4,1.3,1,2.6,1.4,4c1.7,5.5,1.9,11.5,0.4,17.3c-0.7,2.9-1.9,5.7-3.5,8.3
					c-1.5,2.6-3.5,5-5.8,7.1c-4.5,4.2-10.4,7.1-16.7,8c-6.3,0.9-13,0-18.8-3c-2.9-1.5-5.6-3.4-8-5.8c-2.4-2.3-4.4-5.1-5.9-8.1
					c-3.1-6-4.3-13.1-3.1-19.9c0.3-1.7,0.8-3.4,1.3-5c0.3-0.8,0.6-1.6,1-2.4c0.4-0.8,0.7-1.6,1-2.4c0.5-1.6,0.8-3.4,0.7-5.1
					c0-1.8,0-3.5,0-5.3l0.2,0.2c-12.3,0-24.9-0.1-37.8-0.1c-6.4,0-12.9,0-19.4-0.1c-3.3,0-6.6,0-9.9,0c-1.6,0-3.3,0-5,0
					s-3.3-0.1-4.9,0.2c-3.2,0.5-6.2,2.6-7.8,5.4c-0.8,1.4-1.4,3-1.6,4.6c-0.1,0.8-0.1,1.7-0.1,2.5v2.5c0,6.8,0,13.6,0,20.4
					c0,13.7,0,27.6,0,41.8v0.3h-0.3c-2.3,0-4.6,0.1-6.9-0.1h-0.1h-0.1c-6.3-4.6-14.2-7.3-22.1-7.3c-4,0-7.9,0.6-11.8,1.8
					c-3.8,1.2-7.4,3.1-10.7,5.4c-0.8,0.6-1.6,1.2-2.4,1.8l-2.2,2c-1.4,1.5-2.8,2.9-3.9,4.6c-2.4,3.3-4.3,6.9-5.5,10.8
					s-1.8,7.9-1.8,12s0.8,8.2,2.1,12c1.9,5.4,5,10.4,8.9,14.4c4,4,8.9,7.1,14.2,9c5.3,1.9,10.9,2.6,16.4,2.1s10.7-2.2,15.4-4.9l0,0
					l0,0c0.8-0.2,1.7-0.3,2.5-0.3c0.9,0,1.7,0,2.5,0c1.6,0,3.2,0,4.7,0h0.3v0.3c0,19.6,0,39,0,57.9c0,4.7,0,9.5,0,14.2
					c0,1.2,0,2.3,0.2,3.5c0.2,1.1,0.5,2.2,1.1,3.2c1,2,2.7,3.7,4.7,4.9c1,0.5,2.1,0.9,3.2,1.2c1.1,0.2,2.2,0.2,3.4,0.2
					c2.3,0,4.6,0,6.9,0c4.6,0,9.2,0,13.7,0c36.4,0,71.2,0,104,0c16.4,0,32.3,0,47.6,0c7.7,0,15.2,0,22.6,0c1.8,0,3.7,0,5.5,0
					c0.9,0,1.8,0,2.7,0s1.8,0,2.7-0.2c3.5-0.7,6.4-3.5,7.1-6.9c0.2-0.8,0.3-1.7,0.3-2.6s0-1.8,0-2.6c0-1.8,0-3.5,0-5.2
					c0-3.5,0-6.9,0-10.3c0-6.8,0-13.4,0-19.8c0-12.9,0-25.1,0-36.6V366h0.2c2.6,0.6,4.7,2,7.1,2.8c2.3,0.8,4.7,1.4,7.1,1.8
					c2.4,0.3,4.8,0.4,7.2,0.2c1.2-0.1,2.3-0.2,3.5-0.4c1.1-0.3,2.3-0.4,3.4-0.8c4.4-1.2,8.4-3.3,11.8-5.9c3.4-2.6,6.2-5.8,8.3-9.2
					c2.1-3.4,3.6-7,4.5-10.6c0.1-0.5,0.2-0.9,0.3-1.3c0.1-0.5,0.1-0.9,0.2-1.4c0.1-0.4,0.1-0.9,0.2-1.3c0.1-0.4,0.1-0.9,0.1-1.3
					c0-0.9,0.1-1.8,0.1-2.6c0-0.9-0.1-1.7-0.1-2.6c-0.3-6.8-2.8-12.8-5.9-17.4c-3.1-4.6-6.9-8-10.5-10.2c-0.9-0.6-1.8-1-2.7-1.5
					c-0.4-0.2-0.9-0.5-1.3-0.7c-0.4-0.2-0.9-0.3-1.3-0.5c-0.8-0.3-1.6-0.7-2.4-0.9c-0.8-0.2-1.5-0.4-2.2-0.6s-1.4-0.4-2-0.5
					s-1.2-0.2-1.8-0.3c-1.1-0.2-2-0.2-2.7-0.3C631.5,300.4,630.8,300.3,630.8,300.3z"/>
			</g>
		</g>
	</g>
</g>
<g id="Characters">
	<g>
		<g>
			<g>
				<path class="st4" d="M304.1,139.4c0,0,7.5,28,8.1,47.8l0.2,6.6c0,0-16.5,13.7-30.4,14.6l-11.6-28.6L304.1,139.4z"/>
			</g>
			<g>
				<g>
					<g>
						<g>
							<g>
								<g>
									<g>
										<g>
											<g>
												<path class="st4" d="M230.7,156.6c3.2-13.7,4.4-29.6,15.7-38.5c8.4-6.6,18-8.5,28.7-8c5.3,0.2,11.2,2.7,15.8,5.3
													c6.3,3.6,9,10.8,12,17.4c6.1,13.1,5.3,31,1.2,35.9l-55,29c-11-5.7-17.8-8-19.6-22.6
													C228.9,168.8,229.3,162.6,230.7,156.6z"/>
											</g>
										</g>
									</g>
									<g>
										<g>
											<g>
												<path class="st6" d="M247.6,128.9l34.6-10.2c11.1-1.6,19.1,11.9,20.3,23.1c1.3,12.4,2.3,27.7,1.2,37
													c-2.2,18.8-16.5,21.8-16.5,21.8c0-0.1,0,0.3,0.1,5.8l0.4,9c0.1,3.6-0.8,7.3-3,10.2c-5.1,6.6-14.4,7.5-25.4,3.4
													c-6.4-2.4-10.8-7.1-11.3-13.5l-6-79.7C241.8,132.4,244.2,129.4,247.6,128.9z"/>
											</g>
										</g>
										<g>
											<g>
												<g>
													<g>
														<path class="st4" d="M299.1,160.9c0.1,1.3-0.9,2.4-2.2,2.5c-1.3,0.1-2.5-0.8-2.6-2.1s0.9-2.4,2.2-2.5
															C297.8,158.7,299,159.6,299.1,160.9z"/>
													</g>
												</g>
											</g>
										</g>
										<g>
											<g>
												<g>
													<g>
														<path class="st4" d="M299.6,153.1c-0.3,0.3-2.2-0.9-4.7-0.8c-2.6,0.1-4.4,1.5-4.7,1.2c-0.1-0.1,0.1-0.7,0.9-1.3
															s2.2-1.3,3.8-1.3c1.6-0.1,3,0.5,3.8,1.1C299.4,152.4,299.7,152.9,299.6,153.1z"/>
													</g>
												</g>
											</g>
										</g>
										<g>
											<g>
												<g>
													<g>
														<path class="st4" d="M275,160.7c0.1,1.3-0.9,2.4-2.2,2.5c-1.3,0.1-2.5-0.8-2.6-2.1s0.9-2.4,2.2-2.5
															C273.8,158.5,274.9,159.4,275,160.7z"/>
													</g>
												</g>
											</g>
										</g>
										<g>
											<g>
												<g>
													<g>
														<path class="st4" d="M274.2,153.4c-0.3,0.3-2.2-0.9-4.7-0.8c-2.6,0.1-4.4,1.5-4.7,1.2c-0.1-0.1,0.1-0.7,0.9-1.3
															s2.2-1.3,3.8-1.3c1.6-0.1,3,0.5,3.8,1.1C274,152.7,274.3,153.2,274.2,153.4z"/>
													</g>
												</g>
											</g>
										</g>
										<g>
											<g>
												<g>
													<g>
														<path class="st4" d="M284.2,170.1c0-0.1,1.6-0.5,4.2-0.9c0.7-0.1,1.3-0.2,1.4-0.7s-0.2-1.2-0.5-1.9
															c-0.7-1.6-1.4-3.2-2.1-4.9c-3-7-5.2-12.8-4.9-13c0.3-0.1,2.9,5.5,5.9,12.5c0.7,1.7,1.4,3.4,2.1,5
															c0.3,0.7,0.7,1.6,0.4,2.6c-0.2,0.5-0.6,0.9-1,1s-0.8,0.2-1.1,0.2C285.9,170.2,284.3,170.3,284.2,170.1z"/>
													</g>
												</g>
											</g>
										</g>
										<g>
											<g>
												<g>
													<g>
														<path class="st7" d="M287.2,200.6c0,0-12.6,1.3-25.3-5.7c0,0,6.7,12.9,25.4,10.4L287.2,200.6z"/>
													</g>
												</g>
											</g>
										</g>
										<g>
											<g>
												<g>
													<path class="st7" d="M275.9,175.3c0.7-1.2,2-1.9,3.4-2c2-0.1,3.7,0.5,5,2.2c0.5,0.5,0.5,2,0.3,2.4s0,0.2-0.3,0.5
														c-1.1,1.1-2.3,2.1-3.8,2.5s-3.3,0-4.3-1.4C275.2,178.3,275.2,176.5,275.9,175.3z"/>
												</g>
											</g>
										</g>
										<g>
											<g>
												<g>
													<g>
														<path class="st4" d="M276.2,172.3c0.4,0,0.6,2.8,3,4.6c2.5,1.9,5.5,1.4,5.5,1.8c0,0.2-0.6,0.6-1.9,0.7
															c-1.2,0.1-3.1-0.2-4.6-1.4s-2.2-2.8-2.4-3.9C275.8,173,276,172.3,276.2,172.3z"/>
													</g>
												</g>
											</g>
										</g>
										<g>
											<g>
												<g>
													<g>
														<path class="st4" d="M275.2,143.9c-0.2,0.7-2.8,0.6-5.8,1.3c-3,0.6-5.3,1.7-5.8,1.1c-0.2-0.3,0.2-1,1.1-1.8
															s2.4-1.6,4.2-1.9c1.8-0.4,3.5-0.2,4.6,0.1C274.6,143.1,275.2,143.6,275.2,143.9z"/>
													</g>
												</g>
											</g>
										</g>
										<g>
											<g>
												<g>
													<g>
														<path class="st4" d="M299.4,146.1c-0.6,0.5-2.5-0.4-4.8-0.8c-2.4-0.4-4.4-0.2-4.8-0.9c-0.2-0.3,0.2-0.9,1.2-1.3
															c0.9-0.4,2.5-0.7,4.1-0.4s3,1,3.7,1.7C299.4,145.2,299.6,145.9,299.4,146.1z"/>
													</g>
												</g>
											</g>
										</g>
									</g>
								</g>
							</g>
						</g>
						<g>
							<g>
								<path class="st4" d="M281.7,116.7c0,0.1,0.1,0.3,0.1,0.4h-0.1C281.7,117,281.7,116.9,281.7,116.7z"/>
							</g>
						</g>
					</g>
				</g>
				<g>
					<path class="st4" d="M257.5,208.2c-0.5-4.9,1.4-9.8,0.9-14.7c-0.6-5.2-4-9.7-5.4-14.7c-2.2-8.1,0.8-16.7,1.9-25
						c4.7-0.6,9.1-3.4,12.2-7c3.8-4.4,6-9.8,8.2-15.1c-0.1,5.2-1.9,10.4-5.1,14.5c2.1,0.4,4.3-0.5,5.8-1.9c1.6-1.4,2.6-3.4,3.4-5.3
						c2-4.7,3.1-9.8,3.3-15c0.7,7.4-0.1,14.8-2.4,21.9c1.3-0.4,2.7,0,4.1,0.2s2.9,0.2,3.9-0.8c0.6-0.7,0.9-1.6,1.1-2.5
						c1.3-6.3,1.5-12.7,0.6-19c1.7,3.4,3.3,6.9,4.3,10.6c1,3.7,1.2,7.6,0.1,11.3c0.5,0.7,1.7,0.6,2.3,0c0.6-0.6,0.9-1.5,1-2.4
						c0.5-3.1-0.1-6.3-0.6-9.5c1.9,3.3,2.5,7.2,3.5,10.8c1,3.7,2.7,7.4,5.9,9.5c0.6-5.5,0.4-9.2-0.5-14.4c-0.6-3.9-2.5-7.8-4.2-11.4
						c-1.9-4-4.6-7.9-7.6-10.6c-5.5-4.8-7.8-2.8-11.3-0.9l-0.4,0.2c0-0.1,0-0.2,0-0.3l-0.2-0.7c-9.2-2.1-18.9-1.6-27.8,1.3
						c-6.6,2.2-14.8,9-18.2,15.1c-0.1,0.1-0.1,0.2-0.2,0.3c-7.8,14.1-13,30.5-13.4,65.9l0,0L257.5,208.2z"/>
				</g>
			</g>
		</g>
		<g>
			<g>
				<g>
					<path class="st4" d="M242.8,252.6c0,0,0-0.5,0-1.4c-0.1-0.9-0.3-2.2-0.7-3.8c-0.8-3.1-2.7-7.4-6-11.1c-3.4-3.7-7.4-6-10.5-7.1
						c-1.5-0.6-2.8-0.9-3.7-1c-0.9-0.2-1.4-0.2-1.4-0.2c0,0.1,2,0.4,4.9,1.6c3,1.2,6.9,3.5,10.2,7.1s5.2,7.8,6.1,10.8
						C242.6,250.6,242.7,252.6,242.8,252.6z"/>
				</g>
			</g>
			<g>
				<path class="st8" d="M324.8,355.1c0,0,2.2,36.4-7.4,50.6l-7.1-24v-26.4L324.8,355.1z"/>
			</g>
			<g>
				<path class="st9" d="M251.1,209.4c0,0,20.1,15.2,29.9,13.5c7.9-1.4,6.5-13.3,6.5-13.3l3.8,8.3l8.2,33l-3.5,15.5l-18.7-11.5
					L251.1,209.4z"/>
			</g>
			<g>
				<path class="st8" d="M319.8,275.2c-2.1-21.7-28.3-59.4-28.3-59.4l-4.1-6.7l4.1,18.5c0,0,4.1,27,4.7,27.5l-23.1-22.3l-25.9-27.5
					l-5.1,7.3l-22.8,12.6l2.3,71.4l8.2,20.9c0,0-24,65.8-27.1,89.1l-5.2,44.2l122.7-0.2c0,0-4.3-69.2-4.8-83.9
					c-0.5-14.8-1.5-47.5-1.5-47.5S321.9,297,319.8,275.2z"/>
			</g>
			<g>
				<g>
					<path class="st4" d="M197.5,451c0,0,0-0.1,0.1-0.4c0-0.3,0.1-0.7,0.2-1.2c0.1-1.1,0.3-2.6,0.6-4.6c0.5-4,1.2-9.7,2.1-16.8
						c0.4-3.5,0.9-7.4,1.4-11.6c0.2-2.1,0.5-4.2,0.8-6.4c0.3-2.2,0.5-4.5,0.9-6.8c1.8-9.2,4.6-19.2,7.8-29.6
						c1.7-5.6,3.4-11.1,5.2-16.4c1.8-5.2,3.5-10.3,5.1-15c3.2-9.5,6.1-17.9,8.4-24.6v-0.1v-0.1c-2.3-5.7-4.1-10.3-5.4-13.5
						c-0.6-1.5-1.1-2.7-1.5-3.6c-0.2-0.4-0.3-0.7-0.4-0.9c-0.1-0.2-0.1-0.3-0.2-0.3c0,0,0,0.1,0.1,0.3c0.1,0.2,0.2,0.6,0.3,0.9
						c0.3,0.9,0.8,2.1,1.4,3.6c1.2,3.2,3,7.8,5.2,13.5v-0.1c-2.3,6.7-5.2,15.1-8.5,24.5c-1.6,4.7-3.4,9.8-5.2,15s-3.5,10.7-5.2,16.4
						c-3.1,10.4-6,20.4-7.7,29.7c-0.4,2.3-0.7,4.6-0.9,6.8c-0.3,2.2-0.5,4.4-0.7,6.5c-0.5,4.2-0.9,8-1.3,11.6
						c-0.8,7.1-1.4,12.8-1.9,16.8c-0.2,2-0.4,3.5-0.5,4.6c0,0.5-0.1,0.9-0.1,1.2C197.5,450.9,197.5,451,197.5,451z"/>
				</g>
			</g>
			<g class="st10">
				<path d="M216.3,356.8c0,0,16.6,21.4,20.5,20.7c3.9-0.7,7.8-8.2,7.8-8.2l4.3-2l4.2-7.7l-9.1-8.2L216.3,356.8z"/>
			</g>
			<g>
				<path class="st8" d="M295.3,221.3c0,0,9.7,4.1,12.9,9.1c3.2,5,5.3,26.5,5.3,26.5L298.1,231L295.3,221.3z"/>
			</g>
			<g>
				<path class="st6" d="M281.1,358l-15.2-5.7l-11.6-7.8l-9.9,15.8l4.5,2.7c0,0,0.1,3.8,0.1,4.3s1.5,4.3,13.8,4
					c12.3-0.2,15.2-6.5,15.2-6.5s6.4,7.3,9,8.5c2.6,1.1,5.2-2.3,5.2-2.3L281.1,358z"/>
			</g>
			<g>
				<path class="st6" d="M314.1,326.2c0,0,5.8,6.1,7.2,10.9c1.4,4.8,0.6,18.2,0.6,18.2l-1.7,0.1c0,0,0,8.8-2.4,9.1
					c-2.5,0.3-4.8,0.4-4.9-3.6S314,350,314,350L314.1,326.2z"/>
			</g>
			<g>
				<g>
					<path class="st4" d="M302.3,451c0,0,0-0.2,0-0.5c0-0.4,0-0.9,0.1-1.5c0-1.3,0.1-3.3,0.1-5.7c0.1-5,0.2-12.2,0.4-21.1
						c0.3-17.9,0.7-42.5,1.2-69.6c0.9-27.2,1-51.9-0.5-69.7c-0.8-8.9-2.6-16-4.3-20.6c-0.4-1.2-0.8-2.2-1.2-3.1
						c-0.4-0.9-0.7-1.6-1-2.2s-0.5-1-0.7-1.3s-0.2-0.4-0.2-0.4s0.1,0.2,0.2,0.5c0.2,0.3,0.4,0.8,0.6,1.4c0.3,0.6,0.6,1.3,1,2.2
						c0.4,0.9,0.8,1.9,1.2,3.1c1.7,4.7,3.3,11.7,4.1,20.6c1.4,17.8,1.2,42.4,0.3,69.6c-0.4,27.2-0.7,51.8-1,69.7
						c-0.1,8.9-0.2,16.1-0.2,21.1c0,2.5,0,4.4,0,5.7c0,0.6,0,1.1,0,1.5C302.3,450.8,302.3,451,302.3,451z"/>
				</g>
			</g>
			<g>
				<g>
					<path class="st4" d="M259.5,425c0,0,0.2-0.1,0.6-0.2c0.4-0.2,1-0.4,1.7-0.7c1.4-0.7,3.4-1.9,5.5-3.8s4.4-4.4,6.3-7.6
						s3.6-7,4.6-11.2c2.1-8.4,1.7-16.4,1.4-22c-0.2-2.8-0.4-5.1-0.6-6.6c-0.1-0.7-0.2-1.3-0.2-1.8c-0.1-0.4-0.1-0.6-0.1-0.6
						s0,0.2,0,0.6c0,0.5,0.1,1.1,0.1,1.8c0.1,1.6,0.3,3.8,0.4,6.7c0.3,5.6,0.5,13.5-1.5,21.8c-1,4.1-2.6,7.9-4.5,11.1
						s-4.1,5.8-6.1,7.6C262.8,423.7,259.4,424.8,259.5,425z"/>
				</g>
			</g>
			<g>
				<g>
					<path class="st4" d="M295.3,221.3c0,0,0,0.3,0,0.8c0,0.6,0.1,1.3,0.2,2.3c0.2,2,0.4,4.9,0.7,8.6v0.1h0.1c0.8,0.5,1.7,1,2.6,1.5
						l-0.1-0.2c-0.4,6-1,13.6-1.6,22.3l0.4-0.2c-6.4-2.3-13.4-4.8-20.7-7.5c-2.2-0.8-4.4-1.6-6.6-2.4l0.2,0.3c0.3-2.3,0.7-4.5,1-6.7
						l0.1-0.5l-0.5,0.2c-2.7,1-5.4,1.9-7.9,2.8l0.3,0.1c-6.2-8.8-11.5-16.4-15.3-21.7c-1.9-2.6-3.4-4.7-4.4-6.2
						c-0.5-0.7-0.9-1.2-1.2-1.6c-0.3-0.4-0.4-0.6-0.4-0.5c0,0,0.1,0.2,0.4,0.6c0.3,0.4,0.7,1,1.1,1.7c1,1.5,2.5,3.6,4.3,6.3
						c3.7,5.4,9,13,15.1,21.9l0.1,0.2l0.2-0.1c2.5-0.9,5.2-1.8,7.9-2.8l-0.4-0.3c-0.3,2.2-0.6,4.4-1,6.7v0.2l0.2,0.1
						c2.2,0.8,4.4,1.6,6.6,2.4c7.3,2.6,14.3,5.2,20.7,7.4l0.4,0.1v-0.4c0.6-8.7,1.1-16.3,1.5-22.3v-0.1l-0.1-0.1
						c-0.9-0.5-1.8-1-2.6-1.5l0.1,0.1c-0.4-3.6-0.7-6.5-0.9-8.5c-0.1-1-0.2-1.7-0.3-2.3C295.4,221.6,295.3,221.3,295.3,221.3z"/>
				</g>
			</g>
			<g>
				<g>
					<path class="st4" d="M313.9,349.9c0,0,0-0.2,0-0.5c0-0.4,0-0.9,0-1.6c0-1.4,0.1-3.5,0.1-6.1c0.1-5.3,0.1-12.8,0.2-21.7v0.1
						c1.4-4.8,2.6-10.1,3.8-15.8c0.6-2.8,1.1-5.8,1.7-8.8s1-6.2,1.1-9.3c0.3-8.9-1.4-17.4-4.2-24.6l0,0c-1.9-5.5-4.3-10.3-6.5-14.6
						s-4.3-7.9-6-10.9c-1.8-3-3.2-5.4-4.2-7c-0.5-0.8-0.9-1.4-1.2-1.8c-0.3-0.4-0.4-0.6-0.4-0.6s0.1,0.2,0.4,0.7s0.6,1.1,1.1,1.9
						c1,1.6,2.4,4,4.1,7s3.7,6.7,5.9,11c2.1,4.3,4.5,9.1,6.4,14.6l0,0l0,0c2.8,7.1,4.4,15.5,4.1,24.4c-0.1,3.2-0.5,6.3-1.1,9.3
						c-0.5,3-1.1,5.9-1.7,8.8c-1.2,5.7-2.4,11-3.7,15.8l0,0l0,0c0,9,0,16.5,0,21.7c0,2.6,0,4.6,0,6.1c0,0.7,0,1.2,0,1.6
						C313.9,349.7,313.9,349.9,313.9,349.9z"/>
				</g>
			</g>
			<g class="st10">
				<g>
					<path d="M222.6,302.3c12.7-9.1,20.3-24.9,20.5-40.5L222.6,302.3z"/>
				</g>
			</g>
			<g>
				<g>
					<path class="st8" d="M228.3,221.2c0,0-10.8,2.1-15.1,11.4c-4.3,9.3-32.6,79.5-33.1,84.5c-0.5,4.9,1.8,11.2,7.6,17.3
						c5.8,6.1,49.8,37.1,49.8,37.1l19.1-30.5l-38.8-27.9l25.3-52.2C243,260.9,241.1,225,228.3,221.2z"/>
				</g>
				<g>
					<g>
						<path class="st4" d="M201.5,320c0.1,0.2,3-2.4,7.2-4.4s8-2.7,7.9-2.8c0-0.1-1,0-2.5,0.3s-3.6,1-5.7,2c-2.1,1-3.9,2.2-5.1,3.2
							C202.1,319.3,201.4,320,201.5,320z"/>
					</g>
				</g>
				<g>
					<g>
						<path class="st4" d="M202.9,308.9c0,0.2,3.2,0.1,7,1.1s6.5,2.7,6.6,2.5c0.1-0.1-2.6-2.1-6.5-3.1
							C206.2,308.4,202.9,308.8,202.9,308.9z"/>
					</g>
				</g>
				<g>
					<g>
						<path class="st4" d="M187.7,334.4c0,0-0.1-0.1-0.3-0.3c-0.2-0.2-0.5-0.5-0.8-0.9s-0.8-0.8-1.2-1.5c-0.5-0.6-1-1.3-1.5-2.1
							c-1.1-1.6-2.3-3.7-3-6.4c-0.4-1.3-0.6-2.8-0.6-4.4s0.1-3.2,0.9-4.8c5.1-13.1,12.1-31.1,19.8-51c3-7.3,5.9-14.3,8.7-20.9
							c1.4-3.3,2.7-6.5,4-9.6c1.4-3,3.7-5.3,6-7.1l0,0c9.1-5.1,16.6-9.3,21.9-12.2l0,0l0,0c1.9-2.5,3.4-4.5,4.4-5.9
							c0.5-0.6,0.8-1.2,1.1-1.5c0.2-0.3,0.4-0.5,0.4-0.5s-0.2,0.2-0.4,0.5c-0.3,0.4-0.7,0.8-1.2,1.5c-1,1.3-2.6,3.3-4.5,5.8l0,0
							c-5.2,2.9-12.8,7-22,12l0,0l0,0c-2.4,1.9-4.8,4.2-6.2,7.3c-1.3,3.1-2.6,6.3-4,9.6c-2.7,6.6-5.7,13.6-8.7,20.9
							c-7.8,19.9-14.6,38-19.6,51.1c-0.7,1.6-0.9,3.4-0.8,5c0.1,1.6,0.3,3.1,0.7,4.4c0.8,2.7,2,4.8,3.1,6.4c0.5,0.8,1.1,1.5,1.6,2.1
							s0.9,1.1,1.3,1.4c0.3,0.3,0.6,0.6,0.8,0.8C187.5,334.4,187.6,334.4,187.7,334.4z"/>
					</g>
				</g>
				<g>
					<g>
						<path class="st4" d="M215.3,355.7c0,0,0.1,0.1,0.4,0.3c0.3,0.2,0.7,0.5,1.1,0.8c1,0.8,2.5,1.8,4.4,3.2
							c3.8,2.8,9.3,6.7,16.1,11.6l0.2,0.1l0.1-0.2c5.3-8.5,11.9-18.9,19.1-30.5l0.1-0.2l-0.2-0.2c-5.5-4-11.4-8.2-17.5-12.6
							c-7.5-5.4-14.7-10.6-21.3-15.3l0.1,0.4c7.5-15.2,14-28.3,18.6-37.6c2.3-4.6,4.1-8.3,5.3-10.9c0.6-1.2,1.1-2.2,1.4-2.9
							c0.1-0.3,0.3-0.6,0.3-0.8c0.1-0.2,0.1-0.3,0.1-0.3s-0.1,0.1-0.1,0.2c-0.1,0.2-0.2,0.4-0.4,0.7c-0.4,0.7-0.8,1.6-1.5,2.9
							c-1.3,2.6-3.1,6.2-5.5,10.8c-4.6,9.3-11.2,22.4-18.8,37.5l-0.1,0.2l0.2,0.1c6.6,4.8,13.8,10,21.3,15.4
							c6.1,4.4,12,8.6,17.5,12.6l-0.1-0.4c-7.2,11.6-13.7,22-19,30.6l0.3-0.1c-6.8-4.8-12.3-8.7-16.2-11.5c-1.9-1.3-3.4-2.4-4.4-3.1
							c-0.5-0.3-0.9-0.6-1.2-0.8C215.5,355.8,215.3,355.7,215.3,355.7z"/>
					</g>
				</g>
				<g>
					<g>
						<path class="st4" d="M242.8,252.6c0,0,0-0.5,0-1.4c-0.1-0.9-0.3-2.2-0.7-3.8c-0.8-3.1-2.7-7.4-6-11.1c-3.4-3.7-7.4-6-10.5-7.1
							c-1.5-0.6-2.8-0.9-3.7-1c-0.9-0.2-1.4-0.2-1.4-0.2c0,0.1,2,0.4,4.9,1.6c3,1.2,6.9,3.5,10.2,7.1s5.2,7.8,6.1,10.8
							C242.6,250.6,242.7,252.6,242.8,252.6z"/>
					</g>
				</g>
				<g>
					<g>
						<path class="st4" d="M215.3,355.7c0,0,0.1,0.1,0.4,0.3c0.3,0.2,0.7,0.5,1.1,0.8c1,0.8,2.5,1.8,4.4,3.2
							c3.8,2.8,9.3,6.7,16.1,11.6l0.2,0.1l0.1-0.2c5.3-8.5,11.9-18.9,19.1-30.5l0.1-0.2l-0.2-0.2c-5.5-4-11.4-8.2-17.5-12.6
							c-7.5-5.4-14.7-10.6-21.3-15.3l0.1,0.4c7.5-15.2,14-28.3,18.6-37.6c2.3-4.6,4.1-8.3,5.3-10.9c0.6-1.2,1.1-2.2,1.4-2.9
							c0.1-0.3,0.3-0.6,0.3-0.8c0.1-0.2,0.1-0.3,0.1-0.3s-0.1,0.1-0.1,0.2c-0.1,0.2-0.2,0.4-0.4,0.7c-0.4,0.7-0.8,1.6-1.5,2.9
							c-1.3,2.6-3.1,6.2-5.5,10.8c-4.6,9.3-11.2,22.4-18.8,37.5l-0.1,0.2l0.2,0.1c6.6,4.8,13.8,10,21.3,15.4
							c6.1,4.4,12,8.6,17.5,12.6l-0.1-0.4c-7.2,11.6-13.7,22-19,30.6l0.3-0.1c-6.8-4.8-12.3-8.7-16.2-11.5c-1.9-1.3-3.4-2.4-4.4-3.1
							c-0.5-0.3-0.9-0.6-1.2-0.8C215.5,355.8,215.3,355.7,215.3,355.7z"/>
					</g>
				</g>
			</g>
			<g class="st10">
				<polygon points="263.2,243 269.7,242.7 268.3,249.3 297.5,256.7 270.1,246.8 271.1,240.2 				"/>
			</g>
			<g>
				<g>
					<path class="st4" d="M320.2,450.8c0,0,0-0.3,0-0.9s-0.1-1.5-0.1-2.6c-0.1-2.3-0.3-5.5-0.5-9.6c-0.5-8.2-1.1-19.4-1.8-32.1
						l-0.1,0.2c1.1-1.5,2-3.2,2.7-5c1.9-4.8,2.7-9.8,3.4-14.4c0.6-4.6,0.9-9,1.1-13c0.4-8,0.2-14.4,0-18.3V355h-0.1
						c-1.5,0.1-2.6,0.1-3.5,0.2c-0.4,0-0.7,0-0.9,0.1c-0.2,0-0.3,0-0.3,0s0.1,0,0.3,0c0.2,0,0.5,0,0.9,0c0.8,0,2,0,3.5-0.1l-0.1-0.1
						c0.1,3.9,0.1,10.3-0.3,18.3c-0.2,4-0.6,8.3-1.2,13c-0.7,4.6-1.5,9.5-3.4,14.3c-0.7,1.8-1.5,3.5-2.6,4.9l-0.1,0.1v0.1
						c0.8,12.7,1.5,23.9,2,32.1c0.3,4,0.5,7.2,0.7,9.5c0.1,1.1,0.2,1.9,0.2,2.6C320.1,450.5,320.1,450.8,320.2,450.8z"/>
				</g>
			</g>
		</g>
		<g>
			<g>
				<g>
					<g>
						<g>
							<path class="st11" d="M247.7,239l1.6-0.7c0-0.1-3.6-8.5-7-17.5c-1.4-3.6-1.9-6.5-1.5-8.8c0.3-2,2.1-3.3,4.1-3.3l1.1-1.5
								c-3-0.7-6.4,1.8-6.9,4.6c-0.5,2.6,0.1,5.9,1.6,9.7C244.1,230.4,247.7,238.9,247.7,239z"/>
						</g>
					</g>
					<g>
						<path class="st11" d="M245.2,258.8l2.2-0.8c-1.8-4.6-4.2-12.7-3.2-15c0.6-1.4,2.5-2.6,4.7-3.1c2.6-0.6,5.1-0.1,6.8,1.4
							c2.5,2.1,6.3,9.6,7.5,12.3l2.1-1c-0.2-0.4-4.7-10.2-8.1-13.1c-2.3-1.9-5.5-2.6-8.9-1.9c-2.9,0.7-5.4,2.3-6.3,4.4
							C240.3,245.8,244.3,256.6,245.2,258.8z"/>
					</g>
					<g>
						<path class="st4" d="M268.7,294.3c2.7,0,5.3-1.4,7.9-4.3l-0.9-0.8c-2.8,3.2-5.7,4.4-8.5,3.7c-11.6-2.7-20.5-35.1-20.6-35.4
							l-1.1,0.3c0.4,1.4,9.1,33.4,21.5,36.3C267.5,294.2,268.1,294.3,268.7,294.3z"/>
					</g>
				</g>
				<g>
					<path class="st4" d="M274.3,291.3L274.3,291.3c0.5,0.5,1.3,0.5,1.8,0.1l2.5-1.9c0.8-0.5,1-1.6,0.5-2.3l0,0
						c-0.6-0.9-1.8-1-2.6-0.3l-2.3,2.4C273.8,289.9,273.8,290.8,274.3,291.3z"/>
				</g>
				<g>
					<g>
						<g>
							<path class="st4" d="M263.7,295.4c3.6,0,6.3-1.2,7.9-3.5c7.2-10-6.3-37.9-6.9-39.1l-1,0.5c0.1,0.3,13.8,28.4,7,37.9
								c-1.8,2.5-4.9,3.5-9.2,2.9l-0.1,1.2C262.2,295.3,263,295.4,263.7,295.4z"/>
						</g>
					</g>
					<g>
						<path class="st4" d="M263.9,294.7L263.9,294.7c0,0.7-0.6,1.2-1.3,1.3l-3.1,0.3c-0.9,0.1-1.8-0.5-1.9-1.4l0,0
							c-0.1-1,0.7-2,1.8-1.9l3.3,0.3C263.4,293.3,264,294,263.9,294.7z"/>
					</g>
				</g>
			</g>
			<g>
				<g>
					<ellipse class="st4" cx="320.1" cy="267.4" rx="9.1" ry="9.1"/>
				</g>
				<g>
					<ellipse class="st4" cx="320.1" cy="267.4" rx="9.1" ry="9.1"/>
				</g>
				<g>
					<path class="st8" d="M313.4,267.4c0,3.7,3,6.8,6.8,6.8s6.8-3,6.8-6.8c0-3.7-3-6.8-6.8-6.8S313.4,263.6,313.4,267.4z"/>
				</g>
				<g>
					<g>
						<path class="st11" d="M316.4,259.1l1.5-0.8c-0.8-1.5-18.8-36.7-19.9-38.2c-0.2-0.3-0.4-0.7-0.7-1.1c-0.5-0.9-1.2-1.9-1.8-2.7
							c-1.8-2.2-4-4.3-6.6-4.8l1.5,2.5c1.4,0.5,2.1,1.4,3.8,3.4c0.6,0.7,1.2,1.7,1.7,2.5c0.3,0.5,0.5,0.9,0.7,1.2
							C297.4,222.3,311.1,248.9,316.4,259.1z"/>
					</g>
				</g>
			</g>
		</g>
	</g>
</g>
<g id="Light_Bulb">
	<g>
		<g>
			<g>
				<path class="st4" d="M70.3,159.6c-0.1,0.1-4.4-7.3-9.5-16.5s-9.2-16.6-9.1-16.7c0.1-0.1,4.4,7.3,9.5,16.5
					C66.4,152.1,70.4,159.6,70.3,159.6z"/>
			</g>
			<g>
				<path class="st4" d="M84.7,127.8c0.1,0-0.1,5.7-0.4,12.6c-0.4,7-0.8,12.6-0.9,12.6s0.1-5.7,0.4-12.6S84.6,127.8,84.7,127.8z"/>
			</g>
			<g>
				<path class="st4" d="M60.1,167.5c0,0.1-4.8-1.4-10.7-3.4s-10.6-3.7-10.5-3.8c0-0.1,4.8,1.4,10.7,3.4
					C55.4,165.6,60.1,167.3,60.1,167.5z"/>
			</g>
		</g>
		<g>
			<g>
				<g>
					<g>
						<g>
							<path class="st9" d="M131.9,181.7c-8.8-20.2-32.4-29.4-52.5-20.5C59.2,170,50,193.5,58.9,213.7c6.4,14.6,20.5,23.4,35.4,23.9
								c1.9,4.3,4,9.2,4,9.2l32-14c0,0-2.1-5.3-4-9.9C135.4,211.6,138.1,195.8,131.9,181.7z"/>
						</g>
					</g>
				</g>
			</g>
		</g>
		<g>
			<path class="st12" d="M125.6,234.8c0,0-0.1-0.1-0.3-0.4c-0.2-0.3-0.4-0.7-0.7-1.3c-0.6-1.1-1.6-2.8-2.7-4.9
				c-2.3-4.3-5.6-10.6-9.2-18.5c-0.9-2-1.8-4.1-2.7-6.3c-0.5-1.1-0.9-2.2-1.4-3.4c-0.5-1.1-1-2.3-1.1-3.6c-0.1-0.7,0-1.3,0.3-2
				c0.3-0.6,0.7-1.2,1.4-1.5c0.7-0.3,1.4-0.1,2,0.2s1.1,0.9,1.4,1.5c0.7,1.3,0.5,2.8-0.1,4.1s-1.7,2.4-2.9,3.1
				c-1.3,0.7-2.8,1.1-4.3,0.9c-1.5-0.1-3-0.7-4.2-1.7c-1.2-0.9-2.2-2.2-2.9-3.6c-0.3-0.7-0.6-1.5-0.7-2.3s0-1.7,0.5-2.3
				c0.3-0.3,0.6-0.6,1-0.7c0.4-0.1,0.8-0.2,1.2-0.1c0.8,0.1,1.6,0.6,2.1,1.1c0.6,0.6,1,1.3,1.4,2s0.7,1.5,1,2.2
				c0.6,1.5,1.1,3.1,1.2,4.8c0.1,1.6,0,3.4-0.8,4.9c-0.4,0.8-0.9,1.5-1.5,2c-0.6,0.6-1.4,1-2.2,1.3c-0.8,0.2-1.7,0.2-2.5,0.1
				c-0.8-0.2-1.6-0.5-2.3-1c-1.4-0.9-2.5-2.1-3.5-3.3c-0.5-0.6-1-1.3-1.4-1.9c-0.5-0.6-0.9-1.3-1.2-2c-0.3-0.7-0.5-1.5-0.4-2.4
				c0.1-0.4,0.2-0.8,0.5-1.1s0.6-0.6,1-0.6c0.4-0.1,0.8,0,1.2,0.2c0.4,0.2,0.7,0.4,1,0.6c0.6,0.5,1.1,1.1,1.5,1.7
				c1.7,2.5,2.7,5.5,2.5,8.4c-0.1,1.5-0.6,2.9-1.4,4c-0.8,1.2-2,2.1-3.3,2.5s-2.8,0.2-4-0.3c-1.2-0.6-2.3-1.5-2.9-2.6
				c-0.3-0.6-0.5-1.2-0.6-1.8s0-1.3,0.3-1.9c0.2-0.3,0.5-0.5,0.8-0.6s0.7-0.1,1,0c0.6,0.2,1.1,0.6,1.5,1.1c0.8,0.9,1.2,2,1.8,3
				c0.5,1,1,2,1.5,3c3.9,7.8,6.9,14.2,8.9,18.6c1,2.2,1.8,4,2.3,5.1c0.2,0.6,0.4,1,0.6,1.3c0.1,0.3,0.2,0.5,0.2,0.5
				s-0.1-0.2-0.2-0.5s-0.3-0.8-0.6-1.3c-0.5-1.2-1.3-2.9-2.3-5.1c-2-4.4-5.1-10.8-9-18.6c-0.5-1-1-2-1.5-3s-1-2.1-1.8-3
				c-0.4-0.4-0.8-0.9-1.4-1c-0.5-0.2-1.2,0-1.5,0.5s-0.4,1.1-0.3,1.7c0.1,0.6,0.3,1.2,0.6,1.7c0.6,1.1,1.6,2,2.8,2.5
				c1.2,0.5,2.6,0.7,3.8,0.3c1.3-0.4,2.4-1.3,3.2-2.4c0.8-1.1,1.3-2.5,1.4-3.9c0.2-2.9-0.8-5.8-2.4-8.2c-0.4-0.6-0.9-1.2-1.5-1.7
				s-1.3-0.9-2-0.7c-0.7,0.1-1.2,0.8-1.3,1.5c-0.1,0.7,0,1.5,0.4,2.2c0.3,0.7,0.8,1.3,1.2,2c0.4,0.6,0.9,1.3,1.4,1.9
				c1,1.2,2.1,2.4,3.4,3.3c0.7,0.4,1.4,0.8,2.2,0.9c0.8,0.2,1.6,0.1,2.4-0.1c1.5-0.5,2.8-1.7,3.5-3.2s0.9-3.1,0.8-4.7
				c-0.1-1.6-0.6-3.2-1.2-4.7s-1.3-3-2.4-4.1c-0.5-0.6-1.2-1-2-1.1c-0.7-0.1-1.5,0.1-2,0.7c-0.4,0.6-0.5,1.4-0.5,2.1
				c0.1,0.8,0.3,1.5,0.6,2.2c0.6,1.4,1.6,2.6,2.8,3.5c1.2,0.9,2.6,1.5,4,1.6s2.9-0.2,4.1-0.9s2.3-1.7,2.8-3c0.6-1.2,0.7-2.7,0.1-3.9
				c-0.3-0.6-0.8-1.1-1.3-1.4c-0.6-0.3-1.2-0.4-1.8-0.2c-0.6,0.2-1,0.7-1.3,1.3c-0.2,0.6-0.3,1.2-0.3,1.8c0.1,1.3,0.6,2.4,1.1,3.6
				c0.5,1.1,0.9,2.3,1.4,3.4c0.9,2.2,1.8,4.3,2.7,6.3c3.6,8,6.8,14.2,9.1,18.5c1.1,2.1,2.1,3.8,2.7,4.9c0.3,0.6,0.5,1,0.7,1.3
				C125.5,234.7,125.6,234.8,125.6,234.8z"/>
		</g>
		<g>
			<path class="st4" d="M97.5,234.7c0,0-0.2,0-0.5,0s-0.8,0.1-1.4,0.1c-1.2,0-3,0-5.2-0.3s-4.7-0.8-7.5-1.8
				c-2.7-0.9-5.6-2.3-8.4-4.2s-5.2-4-7.1-6.2s-3.4-4.3-4.5-6.2s-1.8-3.5-2.2-4.7c-0.2-0.6-0.4-1-0.5-1.3s-0.2-0.5-0.1-0.5
				c0,0,0.1,0.2,0.2,0.4c0.1,0.3,0.3,0.7,0.5,1.3c0.5,1.1,1.2,2.7,2.3,4.6c1.1,1.9,2.6,4,4.5,6.2c1.9,2.1,4.3,4.3,7,6.1
				c2.8,1.8,5.6,3.2,8.3,4.2c2.7,1,5.3,1.5,7.4,1.8c2.2,0.3,3.9,0.4,5.1,0.4c0.6,0,1.1,0,1.4,0C97.3,234.7,97.5,234.7,97.5,234.7z"
				/>
		</g>
		<g>
			<path class="st4" d="M58.6,202c0.1,0,0.3,0.9,0.5,2s0.3,2,0.2,2.1c-0.1,0-0.3-0.9-0.5-2S58.5,202,58.6,202z"/>
		</g>
		<g>
			<path class="st4" d="M131.6,191.9c0,0,0-0.1-0.1-0.4c-0.1-0.3-0.2-0.7-0.3-1.2c-0.1-0.3-0.1-0.5-0.2-0.9c-0.1-0.3-0.2-0.6-0.3-1
				c-0.2-0.7-0.4-1.5-0.8-2.4c-0.2-0.4-0.3-0.9-0.5-1.4s-0.4-1-0.6-1.5c-0.4-1-1-2.1-1.6-3.1c-1.2-2.1-2.8-4.4-4.7-6.6
				c-1.9-2.1-4-3.9-6-5.4c-1-0.7-2-1.4-2.9-1.9c-0.5-0.3-0.9-0.6-1.4-0.8s-0.9-0.5-1.3-0.7c-0.8-0.5-1.6-0.7-2.3-1
				c-0.3-0.1-0.7-0.3-1-0.4c-0.3-0.1-0.6-0.2-0.8-0.3c-0.5-0.2-0.9-0.3-1.1-0.4c-0.3-0.1-0.4-0.1-0.4-0.2c0,0,0.1,0,0.4,0.1
				s0.7,0.2,1.2,0.3c0.3,0.1,0.5,0.2,0.8,0.3s0.6,0.2,1,0.4c0.7,0.3,1.5,0.6,2.3,1c0.4,0.2,0.9,0.4,1.3,0.7c0.5,0.2,0.9,0.5,1.4,0.8
				c1,0.5,1.9,1.2,3,1.9c2,1.5,4.1,3.3,6,5.5s3.5,4.5,4.7,6.6c0.6,1.1,1.2,2.1,1.6,3.2c0.2,0.5,0.5,1,0.6,1.5c0.2,0.5,0.3,1,0.5,1.4
				c0.3,0.9,0.5,1.7,0.7,2.4c0.1,0.4,0.2,0.7,0.3,1s0.1,0.6,0.2,0.9c0.1,0.5,0.2,0.9,0.2,1.2C131.6,191.8,131.6,191.9,131.6,191.9z"
				/>
		</g>
		<g class="st10">
			<path class="st12" d="M82.5,172c-1.3-1.3-3.5-1.6-5.8-1.4c-3.3,0.4-6.2,2.2-8.2,4.8c-6,7.6-8.3,14.5-7.1,24.5
				c0.4,3.4,2.1,8.6,4.9,10.8c1.4,1.2,3.2,1.8,5,1.5c4.6-0.6,6.2-6.1,5.8-10.4c-0.4-4.1-1.7-8.3-0.4-12.2c1.1-3.2,3.8-5.6,5.6-8.4
				C84,178.6,84.9,174.4,82.5,172z"/>
		</g>
		<g class="st10">
			<path class="st12" d="M96.5,164.2c-2.4-1.7-6.2-1.2-7.8,0.5c-1.3,1.5-1.9,3.6-1.4,5.5c0.5,2.3,2.5,4.2,4.9,4.5
				c2.3,0.3,4.8-1,5.8-3.2C98.9,169.4,98.4,165.6,96.5,164.2z"/>
		</g>
		<g>
			<g id="_x32_gGvdE.tif_1_">
				<path class="st4" d="M115.4,261.4c0,0,1.7,0.3,2.9,0.9c0.6,0.3,1.4,0.4,2.1,0.1l6.4-2.8c0.7-0.3,1.2-1,1.4-1.7
					c0.2-0.9,0.6-2.1,1.4-2.7L115.4,261.4z"/>
			</g>
			<path class="st8" d="M100.6,246.5c0.1,0.1,6,9.5,8.2,13.1c0.9,1.5,2.5,2.5,4.3,2.5c0.6,0,1.3-0.1,2-0.4
				c2.8-1.2,14.1-6.2,14.1-6.2s3.7-1.6,3.2-4.9c-0.5-3.5-4.1-16.3-4.1-16.3L100.6,246.5z"/>
			<g>
				<path class="st8" d="M132.7,248.9l-24.5,10.9c-0.4,0.2-0.8,0-1-0.4v-0.1c-0.2-0.4,0-0.8,0.4-1l24.5-10.9c0.4-0.2,0.8,0,1,0.4
					v0.1C133.2,248.3,133.1,248.7,132.7,248.9z"/>
				<g>
					<path class="st4" d="M132.7,248.9c0,0,0.2-0.1,0.4-0.4c0.1-0.2,0.1-0.4-0.1-0.7c-0.1-0.2-0.4-0.4-0.8-0.4
						c-1.3,0.6-3.3,1.5-5.7,2.6c-4.9,2.2-11.5,5.1-18.9,8.4c-0.2,0.1-0.3,0.3-0.4,0.5c0,0.1,0,0.2,0,0.3c0,0.1,0.1,0.2,0.2,0.3
						c0.1,0.2,0.4,0.2,0.6,0.2s0.4-0.2,0.7-0.3c0.9-0.4,1.8-0.8,2.7-1.2c1.7-0.8,3.4-1.5,5-2.2c3.2-1.4,6.1-2.7,8.5-3.7
						c2.4-1.1,4.4-1.9,5.8-2.5c0.7-0.3,1.2-0.5,1.6-0.7C132.5,249,132.6,249,132.7,248.9C132.6,248.9,132.7,248.9,132.7,248.9
						s0,0-0.1,0.1c-0.1,0-0.2,0.1-0.4,0.2c-0.4,0.2-0.9,0.4-1.5,0.7c-1.4,0.6-3.3,1.5-5.7,2.6c-2.4,1.1-5.3,2.4-8.5,3.8
						c-1.6,0.7-3.3,1.5-5,2.2c-0.9,0.4-1.8,0.8-2.7,1.2l-0.3,0.1c-0.1,0-0.2,0.1-0.4,0.1c-0.3,0-0.6-0.1-0.8-0.3
						c-0.1-0.1-0.2-0.2-0.2-0.4c0-0.1-0.1-0.3,0-0.4c0-0.3,0.2-0.6,0.5-0.7c7.4-3.3,14.1-6.2,18.9-8.4c2.4-1.1,4.4-1.9,5.8-2.5
						c0.4-0.1,0.7,0.2,0.9,0.4c0.1,0.3,0.1,0.5,0.1,0.7C132.9,248.9,132.7,248.9,132.7,248.9z"/>
				</g>
			</g>
			<g>
				<path class="st8" d="M131.8,245.5l-25.5,11.3c-0.4,0.2-0.8,0-1-0.4v-0.1c-0.2-0.4,0-0.8,0.4-1l25.5-11.3c0.4-0.2,0.8,0,1,0.4
					v0.1C132.4,244.9,132.2,245.3,131.8,245.5z"/>
				<g>
					<path class="st4" d="M131.8,245.5c0,0,0.2-0.1,0.4-0.4c0.1-0.2,0.1-0.4-0.1-0.7c-0.1-0.2-0.5-0.4-0.8-0.3
						c-1.4,0.6-3.4,1.5-5.9,2.7c-5,2.2-12,5.3-19.6,8.7c-0.2,0.1-0.3,0.3-0.4,0.5c0,0.1,0,0.2,0,0.3c0,0.1,0.1,0.2,0.2,0.3
						c0.2,0.2,0.4,0.2,0.6,0.2c0.2-0.1,0.5-0.2,0.7-0.3c0.9-0.4,1.9-0.8,2.8-1.2c1.8-0.8,3.6-1.6,5.2-2.3c3.3-1.5,6.3-2.8,8.9-3.9
						c2.5-1.1,4.5-2,6-2.6c0.7-0.3,1.2-0.5,1.6-0.7c0.2-0.1,0.3-0.1,0.4-0.2C131.8,245.5,131.8,245.5,131.8,245.5s0,0-0.1,0.1
						s-0.2,0.1-0.4,0.2c-0.4,0.2-0.9,0.4-1.6,0.7c-1.4,0.6-3.4,1.6-5.9,2.7c-2.5,1.1-5.5,2.5-8.8,3.9c-1.7,0.7-3.4,1.5-5.2,2.3
						c-0.9,0.4-1.8,0.8-2.8,1.2c-0.2,0.1-0.4,0.2-0.7,0.3c-0.3,0.1-0.6,0-0.8-0.2c-0.1-0.1-0.2-0.3-0.2-0.4
						c-0.1-0.1-0.1-0.3-0.1-0.4c0-0.3,0.2-0.6,0.5-0.7c7.7-3.4,14.6-6.5,19.7-8.7c2.5-1.1,4.6-2,6-2.6c0.4-0.1,0.8,0.1,0.9,0.4
						c0.2,0.3,0.2,0.6,0.1,0.7C132.1,245.5,131.8,245.5,131.8,245.5z"/>
				</g>
			</g>
			<g>
				<path class="st8" d="M130.7,242.2l-26.2,11.6c-0.4,0.2-0.8,0-1-0.4v-0.1c-0.2-0.4,0-0.8,0.4-1l26.2-11.6c0.4-0.2,0.8,0,1,0.4
					v0.1C131.3,241.6,131.1,242,130.7,242.2z"/>
				<g>
					<path class="st4" d="M130.7,242.2c0,0,0.2-0.1,0.4-0.5c0.1-0.2,0-0.5-0.1-0.7s-0.5-0.4-0.9-0.3c-1.5,0.7-3.5,1.6-6.1,2.7
						c-5.2,2.3-12.3,5.5-20.1,9c-0.2,0.1-0.4,0.3-0.4,0.5c0,0.1,0,0.2,0.1,0.3s0.1,0.2,0.2,0.3c0.2,0.1,0.4,0.2,0.6,0.1
						c0.2-0.1,0.5-0.2,0.7-0.3c1-0.4,1.9-0.8,2.8-1.3c1.9-0.8,3.6-1.6,5.3-2.4c3.4-1.5,6.5-2.8,9.1-4c2.6-1.1,4.7-2,6.1-2.7
						c0.7-0.3,1.3-0.5,1.7-0.7c0.2-0.1,0.3-0.1,0.4-0.2C130.7,242.2,130.7,242.2,130.7,242.2s0,0-0.1,0.1s-0.2,0.1-0.4,0.2
						c-0.4,0.2-0.9,0.4-1.6,0.8c-1.5,0.7-3.5,1.6-6.1,2.7c-2.6,1.2-5.6,2.5-9,4c-1.7,0.8-3.5,1.6-5.3,2.4c-0.9,0.4-1.9,0.8-2.8,1.3
						c-0.2,0.1-0.5,0.2-0.7,0.3c-0.3,0.1-0.6,0-0.9-0.2c-0.1-0.1-0.2-0.3-0.3-0.4c-0.1-0.1-0.1-0.3-0.1-0.5c0-0.3,0.2-0.6,0.5-0.7
						c7.9-3.5,15-6.6,20.1-8.9c2.6-1.1,4.7-2,6.1-2.7c0.4-0.2,0.8,0,1,0.3s0.2,0.6,0.1,0.8C131,242.1,130.7,242.2,130.7,242.2z"/>
				</g>
			</g>
			<g>
				<path class="st8" d="M129.9,238.8l-27.3,12.1c-0.4,0.2-0.8,0-1-0.4v-0.1c-0.2-0.4,0-0.8,0.4-1l27.3-12.1c0.4-0.2,0.8,0,1,0.4
					v0.1C130.4,238.2,130.3,238.6,129.9,238.8z"/>
				<g>
					<path class="st4" d="M129.9,238.8c0,0,0.3-0.1,0.4-0.5c0.1-0.2,0-0.5-0.2-0.7s-0.6-0.4-0.9-0.2c-1.5,0.7-3.7,1.6-6.3,2.8
						c-5.4,2.4-12.7,5.7-20.9,9.3c-0.2,0.1-0.4,0.3-0.4,0.5s0.1,0.5,0.3,0.6c0.2,0.1,0.4,0.2,0.6,0.1c0.2-0.1,0.5-0.2,0.7-0.3
						c1-0.4,2-0.9,2.9-1.3c1.9-0.8,3.8-1.7,5.5-2.5c3.5-1.6,6.7-3,9.4-4.1c2.7-1.2,4.8-2.1,6.3-2.8c0.7-0.3,1.3-0.6,1.7-0.7
						c0.2-0.1,0.3-0.1,0.5-0.2C129.8,238.8,129.9,238.8,129.9,238.8s0,0-0.1,0.1s-0.3,0.1-0.4,0.2c-0.4,0.2-1,0.4-1.7,0.8
						c-1.5,0.7-3.7,1.6-6.3,2.8c-2.7,1.2-5.8,2.6-9.4,4.2c-1.8,0.8-3.6,1.6-5.5,2.5c-1,0.4-1.9,0.9-2.9,1.3
						c-0.2,0.1-0.5,0.2-0.7,0.3c-0.3,0.1-0.7,0.1-0.9-0.1c-0.1-0.1-0.2-0.2-0.3-0.4c-0.1-0.1-0.1-0.3-0.1-0.5c0-0.3,0.2-0.6,0.5-0.8
						c8.2-3.6,15.5-6.9,20.9-9.2c2.7-1.2,4.8-2.1,6.3-2.8c0.4-0.2,0.8,0,1,0.2c0.2,0.3,0.2,0.6,0.1,0.8c-0.1,0.2-0.2,0.3-0.3,0.4
						C129.9,238.8,129.9,238.8,129.9,238.8z"/>
				</g>
			</g>
			<path class="st9" d="M93.2,239.4c0.1,0.3,3.4,6.2,5.1,9.2c0.6,1.1,1.7,1.9,3,2.1l1.8,0.3l27.2-12l1-1.5c0.7-1.1,0.9-2.4,0.5-3.6
				l-3.4-9.9L93.2,239.4z"/>
			<g class="st13">
				<path d="M109.1,259.3c2.9-0.6,5.5-1.7,8.4-2.9c2.3-1,4.6-2,7.1-3.1c1.8-0.9,3.5-1.7,5.3-2.6c0.9-0.4,1.8-1.1,1.9-1.4
					L109.1,259.3z"/>
			</g>
			<g class="st13">
				<path d="M106.7,256.5c3.1-0.6,5.9-1.8,9-3.2c2.5-1.1,5-2.1,7.7-3.4c2-0.9,3.8-1.8,5.7-2.8c1-0.5,2-1.2,2.1-1.5L106.7,256.5z"/>
			</g>
			<g class="st13">
				<path d="M105.3,253.4c3.1-0.6,5.9-1.8,9-3.2c2.5-1.1,5-2.1,7.7-3.4c2-0.9,3.8-1.8,5.7-2.8c1-0.5,2-1.2,2.1-1.5L105.3,253.4z"/>
			</g>
			<g class="st13">
				<path d="M103.9,250.2c3.1-0.6,5.9-1.8,9-3.2c2.5-1.1,5-2.1,7.7-3.4c2-0.9,3.8-1.8,5.7-2.8c1-0.5,2-1.2,2.1-1.5L103.9,250.2z"/>
			</g>
			<path class="st14" d="M93.2,239.4c0.1,0.3,3.4,6.2,5.1,9.2c0.6,1.1,1.7,1.9,3,2.1l1.8,0.3l27.2-12l1-1.5c0.7-1.1,0.9-2.4,0.5-3.6
				l-3.4-9.9L93.2,239.4z"/>
			<g>
				<path class="st4" d="M131.7,235.4c0,0.1-7.2,3.3-16.2,7.3c-9,3.9-16.3,7.1-16.3,7s7.2-3.3,16.2-7.3
					C124.4,238.5,131.7,235.4,131.7,235.4z"/>
			</g>
			<g>
				<path class="st4" d="M128.2,223.8c0,0.1-7.8,3.6-17.6,8c-9.7,4.3-17.7,7.8-17.7,7.7s7.8-3.6,17.6-8
					C120.2,227.2,128.1,223.8,128.2,223.8z"/>
			</g>
		</g>
	</g>
</g>
<g id="Speech_Bubble_1_">
	<g>
		<g>
			<g>
				<g>
					<g>
						<g>
							<g>
								<g>
									<path class="st12" d="M448.3,157l-12.5-1.5c-5,5.1-11.5,8.9-19,10.8c-21.5,5.3-43.2-7.9-48.5-29.4s7.9-43.2,29.4-48.5
										s43.2,7.9,48.5,29.4c2.2,9,1.2,18-2.3,25.8l0,0L448.3,157z"/>
								</g>
							</g>
							<g>
								<g>
									<g>
										<path class="st4" d="M448.3,157c0,0-0.1-0.3-0.3-0.9c-0.2-0.6-0.5-1.4-0.9-2.6c-0.8-2.3-1.9-5.6-3.3-9.9h0.2l0,0
											c0,0.1-0.1,0.1-0.2,0c0,0-0.1-0.1,0-0.1c2.1-4.8,3.9-11.5,3.2-19.5c-0.2-2-0.5-4-1-6.1c-0.6-2-1.2-4.2-2.1-6.3
											c-1.8-4.2-4.4-8.3-7.9-12c-3.5-3.6-7.9-6.8-13-9c-5-2.2-10.8-3.4-16.6-3.3c-11.7,0.1-24.1,6.2-31.6,16.8
											c-3.8,5.4-6.3,11.6-7,17.9c-0.8,6.3-0.1,12.6,1.8,18.2c1.9,5.7,5.2,10.7,9.1,14.7s8.5,7,13.2,9s9.6,2.9,14.2,3.1
											c0.6,0,1.1,0,1.7,0s1.1,0,1.7-0.1c1.1-0.1,2.2-0.2,3.3-0.3c2.1-0.4,4.2-0.7,6.1-1.3c7.7-2.3,13.2-6.5,16.9-10.1h0.1
											c4,0.5,7.1,0.9,9.2,1.2c1,0.1,1.8,0.2,2.4,0.3C448,156.9,448.3,157,448.3,157s-0.3,0-0.8-0.1c-0.6-0.1-1.3-0.1-2.4-0.3
											c-2.1-0.2-5.3-0.6-9.3-1h0.1c-3.6,3.7-9.2,7.9-16.9,10.3c-1.9,0.6-4,0.9-6.1,1.4c-1.1,0.1-2.2,0.2-3.3,0.3
											c-0.6,0.1-1.1,0.1-1.7,0.1s-1.1,0-1.7,0c-4.6-0.1-9.6-1.1-14.4-3.1s-9.4-5-13.4-9.1c-3.9-4-7.3-9.1-9.2-14.9
											c-2-5.7-2.7-12.1-1.9-18.5c0.7-6.4,3.3-12.6,7.1-18.1c0.4-0.7,1-1.3,1.5-1.9l1.5-1.9l1.7-1.7c0.6-0.6,1.1-1.1,1.8-1.6
											c0.6-0.5,1.2-1,1.9-1.5c0.6-0.5,1.3-0.9,2-1.4c0.7-0.4,1.3-0.9,2-1.3s1.4-0.7,2.1-1.1c5.6-2.9,11.7-4.4,17.6-4.5
											c6-0.1,11.7,1.1,16.8,3.3c5.1,2.2,9.6,5.4,13.1,9.1s6.2,7.9,8,12.1c1,2.1,1.5,4.3,2.1,6.3c0.5,2.1,0.8,4.2,1,6.2
											c0.7,8-1.2,14.8-3.4,19.6l-0.2-0.1l0,0c0-0.1,0.1-0.1,0.2,0c0,0,0,0,0,0.1c1.4,4.4,2.5,7.7,3.2,10c0.4,1.1,0.6,2,0.8,2.5
											C448.2,156.7,448.3,157,448.3,157z"/>
									</g>
								</g>
							</g>
						</g>
					</g>
				</g>
			</g>
		</g>
		<g>
			<g>
				<g>
					<g>
						<polygon class="st4" points="388.8,128.3 393.6,123 403.8,131.1 418.9,113.8 423.9,118.6 403.6,140.9 						"/>
					</g>
				</g>
			</g>
		</g>
		<g>
			<path class="st1" d="M338.3,160.4c1.8-0.2,4.5-0.6,7.9-1h0.1c3.1,3.1,7.9,6.7,14.4,8.7c1.6,0.5,3.4,0.8,5.2,1.1
				c0.9,0.1,1.9,0.2,2.8,0.2c0.5,0.1,1,0.1,1.4,0c0.5,0,1,0,1.5,0c3.9-0.1,8.1-0.9,12.2-2.6c1-0.4,2.1-0.9,3.1-1.5
				c-0.3-0.1-0.6-0.2-0.9-0.4c-4.7-1.9-9.3-4.9-13.1-8.9c-3.9-4-7.1-8.9-9-14.6c-1.9-5.6-2.6-11.9-1.8-18.1c0.7-6.3,3.2-12.4,7-17.7
				c0.4-0.7,0.9-1.3,1.5-1.9l1.5-1.8l0.7-0.7c-0.4,0-0.7,0-1.1,0c-5-0.1-9.9,0.9-14.3,2.8c-4.3,1.9-8.1,4.6-11.1,7.7
				s-5.3,6.7-6.8,10.3c-0.8,1.8-1.3,3.6-1.8,5.4c-0.4,1.8-0.7,3.5-0.9,5.2c-0.6,6.8,1,12.6,2.8,16.7v0.1c-1.2,3.7-2.2,6.5-2.8,8.4
				c-0.3,1-0.6,1.7-0.7,2.2c-0.2,0.5-0.3,0.8-0.3,0.8s0.2,0,0.7-0.1C336.7,160.6,337.4,160.5,338.3,160.4z"/>
			<g>
				<path class="st4" d="M338.3,160.4c0,0-0.2,0-0.7,0.1s-1.2,0.2-2.1,0.3h-0.1v-0.1c0.8-2.3,2.1-6.2,3.8-11.4v-0.1c0,0,0,0.1,0,0
					l-0.1-0.2l-0.1-0.3c-0.1-0.2-0.2-0.4-0.3-0.7c-0.2-0.5-0.4-0.9-0.5-1.4c-0.3-1-0.6-2-0.9-3c-0.5-2.1-0.9-4.4-1-6.9
					s0.1-5.1,0.6-7.8c0.2-1.4,0.7-2.7,1.1-4.1s1-2.7,1.6-4.1c2.5-5.4,6.7-10.6,12.5-14.3c5.7-3.7,13-5.9,20.5-5.5h0.6l-0.4,0.4
					c-0.2,0.2-0.4,0.4-0.7,0.7l0,0c-4.6,5.2-8.1,11.7-9.5,18.9c-1.9,9.9,0.1,20,4.9,27.9s12,13.5,19.5,16.3l0.5,0.2l-0.5,0.2
					c-1.8,0.9-3.6,1.8-5.4,2.4c-1.8,0.6-3.6,1-5.4,1.3c-3.6,0.6-7.1,0.5-10.2,0.1l0,0l0,0c-1.2-0.2-2.3-0.4-3.4-0.7
					c-1.1-0.2-2.2-0.6-3.2-0.9c-2-0.7-3.8-1.5-5.5-2.5c-3.3-1.8-5.8-3.9-7.6-5.8c0-0.1-0.2,0-0.4,0c-0.2,0-0.3,0-0.5,0.1
					c-0.3,0-0.6,0.1-0.9,0.1c-0.6,0.1-1.1,0.1-1.6,0.2c-1,0.1-1.8,0.2-2.5,0.3s-1.2,0.1-1.6,0.2
					C338.5,160.4,338.3,160.4,338.3,160.4s0.2,0,0.5-0.1c0.4-0.1,0.9-0.1,1.6-0.2c0.7-0.1,1.5-0.2,2.5-0.3c0.5-0.1,1-0.1,1.6-0.2
					c0.3,0,0.6-0.1,0.9-0.1c0.2,0,0.3,0,0.5-0.1h0.2c0.1,0,0.1,0,0.2,0c0,0,0.1,0,0.1,0.1l0,0c1.9,1.8,4.4,3.9,7.6,5.7
					c3.3,1.8,7.3,3.3,12,4l0,0c1.6,0.1,3.2,0.3,4.9,0.3c1.7,0,3.4-0.2,5.2-0.5c1.8-0.3,3.6-0.7,5.4-1.3s3.5-1.5,5.3-2.3v0.4
					c-7.5-2.8-14.9-8.5-19.7-16.5c-4.9-7.9-6.9-18.2-5-28.2c1.4-7.3,5-13.9,9.6-19.1l0,0l0,0c0.2-0.2,0.5-0.5,0.7-0.7l0.2,0.4
					c-7.4-0.4-14.6,1.7-20.2,5.3c-5.7,3.6-9.9,8.8-12.4,14.1c-0.6,1.3-1.2,2.7-1.6,4c-0.4,1.4-0.8,2.7-1.1,4
					c-0.5,2.7-0.7,5.3-0.6,7.7s0.4,4.7,1,6.8c0.3,1.1,0.5,2.1,0.9,3c0.2,0.5,0.3,0.9,0.5,1.4c0.1,0.2,0.2,0.4,0.3,0.7l0.1,0.3
					l0.1,0.2c0,0,0.1,0.2-0.1,0.3v-0.1c-1.8,5.2-3.1,9.1-3.9,11.3l-0.1-0.1c0.9-0.1,1.6-0.2,2.1-0.2
					C338,160.4,338.3,160.4,338.3,160.4z"/>
			</g>
		</g>
	</g>
</g>
<g id="Chart_x0A_">
	<g>
		<path class="st11" d="M674.3,166.5h-12.4c-2.5,0-4.4-2-4.4-4.4V94c0-2.5,2-4.4,4.4-4.4h12.4c2.5,0,4.4,2,4.4,4.4v68
			C678.8,164.5,676.8,166.5,674.3,166.5z"/>
		<g>
			<g>
				<path class="st11" d="M607.3,169.7h-12.1c-2.5,0-4.6-2.1-4.6-4.6v-25.7c0-2.5,2.1-4.6,4.6-4.6h12.1c2.5,0,4.6,2.1,4.6,4.6v25.7
					C611.9,167.7,609.9,169.7,607.3,169.7z"/>
			</g>
			<g>
				<path class="st11" d="M640,169.7h-11.5c-2.7,0-4.9-2.2-4.9-4.9v-44.1c0-2.7,2.2-4.9,4.9-4.9H640c2.7,0,4.9,2.2,4.9,4.9v44.1
					C644.9,167.5,642.7,169.7,640,169.7z"/>
			</g>
			<g>
				<g>
					<path class="st4" d="M670.9,64.1c0,0-0.2,0.2-0.5,0.7c-0.4,0.5-0.9,1.1-1.6,1.9c-1.5,1.7-3.5,4-6,6.9
						c-5.2,5.9-12.5,14.1-20.9,23.6l-0.2,0.3l-0.3-0.2c-4.1-2.7-8.5-5.6-13.1-8.6l0.6-0.1c-0.2,0.2-0.3,0.4-0.5,0.6
						c-10.8,12.7-20.6,24.1-27.7,32.5l-0.2,0.2l-0.2-0.2c-4.3-3.2-7.9-5.9-10.4-7.7c-1.2-0.9-2.1-1.6-2.8-2.1
						c-0.6-0.5-1-0.8-0.9-0.8c0,0,0.4,0.2,1,0.7c0.7,0.5,1.7,1.2,2.9,2c2.6,1.8,6.2,4.4,10.6,7.5h-0.4c7.1-8.4,16.8-19.9,27.5-32.6
						c0.2-0.2,0.3-0.4,0.5-0.6l0.2-0.3l0.3,0.2c4.6,3,9,5.9,13.1,8.6l-0.5,0.1c8.5-9.4,15.9-17.5,21.2-23.4c2.6-2.8,4.7-5.1,6.2-6.7
						c0.7-0.7,1.2-1.3,1.7-1.8C670.7,64.3,670.9,64.1,670.9,64.1z"/>
				</g>
			</g>
			<g>
				<g>
					<path class="st4" d="M671.6,80.4c-0.1,0-0.2-1.9-0.3-4.9s-0.1-7.2-0.1-11.9l0.5,0.4c-0.1,0-0.3,0-0.4,0.1
						c-4.7,0.8-9,1.4-12.1,1.9c-3.1,0.4-5,0.6-5,0.5s1.9-0.5,4.9-1.1c3.1-0.6,7.3-1.3,12-2.1c0.1,0,0.3,0,0.4-0.1l0.5-0.1v0.5
						c0,4.7-0.1,8.9-0.1,11.9C671.8,78.5,671.7,80.4,671.6,80.4z"/>
				</g>
			</g>
		</g>
	</g>
	<g>
		<g>
			<g>
				<g>
					<g>
						<path class="st8" d="M533,105.1c-1.5-3-5.1-4.9-8.4-4.3c-3.9-3.2-10-3.1-13.8,0.1c-2.9-1.8-6.8-1.9-9.8-0.3s-5.1,4.8-5.3,8.3
							c-3.4-0.6-7.1,1.2-8.8,4.3c-1.6,3.1-1.1,7.1,1.3,9.7c-3.7,1.2-6.3,5.4-5.5,9.2s4.7,6.8,8.6,6.4l40.1-23.9
							C533.8,112.1,534.5,108.1,533,105.1z"/>
					</g>
				</g>
			</g>
			<g>
				<g>
					<g>
						<g>
							<g>
								<g>
									<g>
										<path class="st15" d="M490.1,139.4c1.7-17.6,16.6-31,34.3-30.7h1.8c18.9,1.4,28.3,18.2,26.4,37.1l-3.7,63.1l-0.2,3.1
											l-43.9,8.1l0.3-16.1c0,0-18.2-3.1-18.1-21.3C487,173.9,488.6,155.8,490.1,139.4z"/>
									</g>
								</g>
							</g>
						</g>
					</g>
					<g>
						<g>
							<g>
								<g>
									<g>
										<g>
											<g>
												<path class="st16" d="M505,204c0,0,11.6,0.9,24-6.6c0,0-5.8,13-24,11.1V204z"/>
											</g>
										</g>
									</g>
								</g>
							</g>
						</g>
					</g>
					<g>
						<g>
							<g>
								<g>
									<g>
										<g>
											<g>
												<g>
													<g>
														<g>
															<path class="st4" d="M497.3,156.3c-0.1,1.4,1,2.6,2.5,2.7c1.4,0.1,2.6-0.9,2.7-2.3c0.1-1.4-1-2.6-2.5-2.7
																C498.6,153.9,497.3,154.9,497.3,156.3z"/>
														</g>
													</g>
												</g>
											</g>
										</g>
									</g>
								</g>
							</g>
						</g>
					</g>
					<g>
						<g>
							<g>
								<g>
									<g>
										<g>
											<g>
												<g>
													<g>
														<g>
															<g>
																<path class="st4" d="M493.9,148.4c0.3,0.3,2.3-1.1,5.1-1c2.8,0,4.8,1.5,5.1,1.1c0.2-0.1-0.2-0.8-1.1-1.4
																	c-0.9-0.7-2.4-1.3-4.1-1.3s-3.2,0.6-4.1,1.2C494,147.6,493.7,148.3,493.9,148.4z"/>
															</g>
														</g>
													</g>
												</g>
											</g>
										</g>
									</g>
								</g>
							</g>
						</g>
					</g>
					<g>
						<g>
							<g>
								<g>
									<g>
										<g>
											<g>
												<g>
													<g>
														<g>
															<path class="st4" d="M523.3,157c-0.1,1.4,1,2.6,2.5,2.7c1.4,0.1,2.6-0.9,2.7-2.3c0.1-1.4-1-2.6-2.5-2.7
																C524.6,154.6,523.4,155.6,523.3,157z"/>
														</g>
													</g>
												</g>
											</g>
										</g>
									</g>
								</g>
							</g>
						</g>
					</g>
					<g>
						<g>
							<g>
								<g>
									<g>
										<g>
											<g>
												<g>
													<g>
														<g>
															<g>
																<path class="st4" d="M521.4,149.3c0.3,0.3,2.3-1.1,5.1-1c2.8,0,4.8,1.5,5.1,1.1c0.2-0.1-0.2-0.8-1.1-1.4
																	c-0.9-0.7-2.4-1.3-4.1-1.3c-1.7,0-3.2,0.6-4.1,1.2C521.6,148.6,521.3,149.2,521.4,149.3z"/>
															</g>
														</g>
													</g>
												</g>
											</g>
										</g>
									</g>
								</g>
							</g>
						</g>
					</g>
					<g>
						<g>
							<g>
								<g>
									<g>
										<g>
											<g>
												<g>
													<g>
														<g>
															<path class="st4" d="M511,169.9c0-0.2-1.7-0.5-4.5-0.9c-0.7-0.1-1.4-0.2-1.5-0.7c-0.2-0.5,0.1-1.3,0.5-2.1
																c0.7-1.7,1.4-3.5,2.2-5.4c3-7.7,5.3-14.1,5-14.2c-0.3-0.1-3,6-6.1,13.7c-0.7,1.9-1.4,3.7-2.1,5.4
																c-0.3,0.8-0.8,1.7-0.4,2.8c0.2,0.5,0.7,0.9,1.2,1.1c0.5,0.1,0.9,0.2,1.2,0.2C509.2,170.1,510.9,170.1,511,169.9z"/>
														</g>
													</g>
												</g>
											</g>
										</g>
									</g>
								</g>
							</g>
						</g>
					</g>
					<g>
						<g>
							<g>
								<g>
									<g>
										<g>
											<g>
												<g>
													<g>
														<g>
															<path class="st4" d="M519.2,172c-0.5,0-0.5,3-3.1,5.1s-5.9,1.7-5.9,2.2c0,0.2,0.7,0.6,2.1,0.7
																c1.3,0.1,3.3-0.3,4.9-1.6c1.6-1.3,2.3-3.1,2.4-4.3C519.7,172.7,519.4,172,519.2,172z"/>
														</g>
													</g>
												</g>
											</g>
										</g>
									</g>
								</g>
							</g>
						</g>
					</g>
					<g>
						<g>
							<g>
								<g>
									<g>
										<g>
											<path class="st8" d="M520.9,138.4c0.3,0.8,3.1,0.4,6.3,0.9c3.3,0.4,5.9,1.4,6.4,0.7c0.2-0.3-0.3-1-1.3-1.8
												c-1.1-0.8-2.7-1.5-4.7-1.7s-3.8,0-5,0.5C521.4,137.4,520.7,138,520.9,138.4z"/>
										</g>
									</g>
								</g>
							</g>
						</g>
					</g>
					<g>
						<g>
							<g>
								<g>
									<g>
										<g>
											<path class="st8" d="M495,140.3c0.5,0.6,2.4,0,4.7,0c2.3-0.1,4.3,0.5,4.7-0.2c0.2-0.3-0.1-1-0.9-1.6s-2.2-1.1-3.8-1.1
												c-1.6,0-3,0.6-3.8,1.2C495.1,139.4,494.8,140,495,140.3z"/>
										</g>
									</g>
								</g>
							</g>
						</g>
					</g>
					<g>
						<g>
							<g>
								<g>
									<g>
										<path class="st8" d="M492,131.1c0,0,5-11.3,10.5-13.9c6.7-3.1,9.5,4.2,15.8,2.5c6.4-1.7,12.8-4.7,19.2,0.3
											c7,5.5,3.6,9.2,4,17.3c1.3,32.8,7.2,42.2,9.1,26.7c0.2-1.7,4.9-3,5.7-10.1c1-9.3,1.6-20.5-0.4-27.1
											c-1.7-5.6-4.8-9.4-10.4-13.7c-8.8-6.8-21.1-7.1-29.5-6.4C507.7,107.4,491.4,116.8,492,131.1z"/>
									</g>
								</g>
							</g>
						</g>
					</g>
					<g>
						<g>
							<g>
								<g>
									<g>
										<path class="st15" d="M549.4,163.6c0.2-2.8,2.6-5,5.4-4.7c3.4,0.4,7.1,2.4,6.8,9.4c-0.6,12.4-13,9.3-13,8.9
											C548.7,176.9,549.1,168.8,549.4,163.6z"/>
									</g>
								</g>
							</g>
						</g>
					</g>
					<g>
						<g>
							<g>
								<g>
									<g>
										<path class="st16" d="M551.6,172.6c0.1,0,0.2,0.2,0.6,0.3c0.3,0.2,1,0.3,1.6,0.1c1.3-0.4,2.5-2.5,2.7-4.7
											c0.1-1.1-0.1-2.2-0.5-3.1c-0.3-0.9-0.9-1.6-1.6-1.7c-0.7-0.2-1.1,0.2-1.3,0.5s-0.1,0.6-0.2,0.6c0,0-0.3-0.2-0.1-0.7
											c0.1-0.2,0.2-0.5,0.5-0.8c0.3-0.2,0.8-0.3,1.2-0.3c1,0.1,1.8,1,2.2,2s0.7,2.2,0.6,3.5c-0.2,2.5-1.6,4.8-3.4,5.2
											c-0.9,0.2-1.6-0.1-2-0.4C551.6,172.9,551.6,172.7,551.6,172.6z"/>
									</g>
								</g>
							</g>
						</g>
					</g>
				</g>
				<g>
					<g>
						<g>
							<g>
								<path class="st8" d="M549.5,139.4c-1.6,1.1-3.4,2.2-5.3,2.4c-2,0.2-4.2-1-4.5-2.9c-0.1-0.9,0.1-1.9-0.5-2.6
									c-0.7-0.8-1.9-0.6-3-0.5c-3.6,0.3-7.3-2.3-8.2-5.8c-0.9,1.4-3.1,1.3-4.5,0.4c-1.4-0.9-2.3-2.4-3.3-3.7
									c-1.1-1.3-2.6-2.4-4.2-2.2c-0.9,0.1-1.8,0.7-2.7,0.6c-1.6-0.2-2.4-2.1-2.6-3.7s-0.4-3.5-1.8-4.4c-1.3-0.8-2.9-0.4-4.5-0.2
									c-1.5,0.2-3.4-0.2-3.8-1.7c-0.2-0.8,0.2-1.6,0.6-2.3c2-3,6.2-4.3,9.6-2.9c1.3-4.1,5.2-7.2,9.4-7.6c4.3-0.4,8.7,2,10.7,5.8
									c2.7-2.4,6.5-3.3,10-2.5s6.4,3.4,7.7,6.8c3-0.8,6.5,0.5,8.4,3s2.1,6.1,0.5,8.9c2.2,1.3,4.1,3.6,4.1,6.1c0,2.6-2.5,5.1-5,4.4
									c1,2,0.1,4.7-1.8,5.8c-2,1.1-4.7,0.4-5.9-1.5"/>
							</g>
						</g>
					</g>
				</g>
			</g>
			<g>
				<g>
					<g>
						<g>
							<path class="st12" d="M557.6,134.7c0,0,0.2,1.1-0.8,2.4c-0.5,0.6-1.4,1.3-2.5,1.5s-2.5-0.1-3.5-1.1l0.5-0.1
								c-0.6,1.1-1.5,2.1-2.5,3.1c-0.7,0.6-1.5,1.1-2.3,1.4c-0.8,0.3-1.8,0.3-2.5,0.2c-1.6-0.2-2.9-1.1-3.6-2.1c-0.6-1-0.8-2-1-2.6
								c-0.1-0.6-0.1-1-0.1-1c0.1,0,0.2,0.3,0.4,0.9c0.2,0.6,0.5,1.5,1.1,2.4c1.2,1.8,5,2.8,7.5,0.3c1-0.9,1.8-1.9,2.4-2.9l0.2-0.4
								l0.3,0.3c0.8,0.8,2,1.1,3,1s1.8-0.6,2.3-1.2C557.5,135.7,557.5,134.7,557.6,134.7z"/>
						</g>
					</g>
				</g>
			</g>
			<g>
				<g>
					<g>
						<g>
							<path class="st12" d="M534.4,105.9c0,0-0.3,0.1-0.9,0.3c-0.5,0.2-1.4,0.7-2,1.6l-0.2,0.2l-0.2-0.2c-1.1-1.6-3.1-3.6-6-5
								c-1.4-0.7-3.1-1.1-4.9-1.1c-1.8,0-3.6,0.5-5.3,1.4c-1.3,0.8-2.4,1.8-3.2,2.9c-0.8,1.2-1.3,2.5-1.4,3.7v0.4l-0.4-0.1
								c-1.9-0.5-3.8-0.2-5.2,0.6c-1.4,0.8-2.4,1.9-2.9,3c-1,2.2-0.7,3.7-0.8,3.7c0,0-0.1-0.3-0.1-1s0.1-1.7,0.6-2.8
								c0.5-1.1,1.4-2.4,3-3.3c1.5-0.9,3.6-1.3,5.6-0.7l-0.4,0.3c0.1-1.4,0.7-2.8,1.5-4.1c0.9-1.2,2-2.3,3.4-3.2
								c1.8-1,3.8-1.6,5.7-1.5c1.9,0,3.7,0.6,5.1,1.3c3,1.5,4.9,3.6,6,5.3h-0.3c0.7-1,1.6-1.4,2.2-1.6
								C534.1,105.9,534.4,105.9,534.4,105.9z"/>
						</g>
					</g>
				</g>
			</g>
			<g>
				<g>
					<g>
						<g>
							<path class="st16" d="M523.4,173.9c-0.2,0-0.3-1.3-1.3-2.4c-1-1.1-2.3-1.3-2.3-1.5c0-0.1,0.4-0.2,0.9-0.1
								c0.6,0.1,1.3,0.5,1.9,1.1c0.6,0.7,0.9,1.4,0.9,2C523.6,173.5,523.5,173.9,523.4,173.9z"/>
						</g>
					</g>
				</g>
			</g>
			<g>
				<g>
					<g>
						<g>
							<path class="st16" d="M524.6,170.5c-0.2,0.1-0.6-0.3-1.3-0.6c-0.6-0.3-1.3-0.4-1.3-0.6c0-0.2,0.7-0.5,1.6,0
								C524.5,169.6,524.8,170.4,524.6,170.5z"/>
						</g>
					</g>
				</g>
			</g>
			<g>
				<g>
					<g>
						<g>
							<path class="st16" d="M539,199.8c0-0.1,0.2-0.1,0.3-0.3c0.2-0.2,0.3-0.7,0-1.1c-0.2-0.5-0.8-0.9-1.1-1.7
								c-0.2-0.4-0.2-1,0-1.5c0.2-0.4,0.6-0.7,0.8-1.1c1-1.2-1.8-2.1-1.5-3.7c0.1-0.7,0.4-1.1,0.7-1.3s0.5-0.2,0.5-0.2
								c0.1,0.1-0.7,0.5-0.7,1.5c0,0.5,0.3,1,0.9,1.5c0.3,0.3,0.6,0.6,0.8,1c0.2,0.5,0.1,1.2-0.2,1.6c-0.3,0.4-0.6,0.7-0.8,1
								s-0.2,0.6,0,0.9c0.2,0.6,0.8,1.1,1,1.8c0.2,0.6,0,1.3-0.3,1.5C539.3,199.9,539,199.9,539,199.8z"/>
						</g>
					</g>
				</g>
			</g>
			<g>
				<g>
					<g>
						<g>
							<path class="st16" d="M542.9,199.3c-0.1,0-0.1-0.2-0.2-0.5c-0.1-0.3-0.3-0.6-0.7-1.1c-0.2-0.2-0.4-0.5-0.5-0.8
								c-0.2-0.3-0.3-0.8-0.2-1.2c0.2-0.9,1-1.4,1.3-2.1c0.4-0.6,0.1-1.2-0.5-1.7c-0.2-0.3-0.5-0.6-0.7-0.9c-0.2-0.3-0.2-0.7-0.2-1
								c0.1-1.3,1-1.7,1-1.6c0.1,0.1-0.5,0.6-0.5,1.6c0,0.5,0.3,1,0.8,1.5c0.3,0.3,0.6,0.6,0.8,1c0.2,0.5,0.1,1.1-0.1,1.5
								c-0.5,0.8-1.1,1.3-1.3,1.9c-0.2,0.5,0.2,1.1,0.5,1.6s0.5,0.9,0.5,1.3C543,199.1,542.9,199.3,542.9,199.3z"/>
						</g>
					</g>
				</g>
			</g>
		</g>
		<g>
			<g>
				<g>
					<g>
						<g>
							<path class="st15" d="M410.7,254.4c0,0,2.8,11.3,4.6,14.3c1.8,3.1,2.1,5.7,2.1,5.7l1.2,18L403.9,307l-28.6-21.3
								c0,0-10.3-10-7.5-13.8c0,0,1.4-1.9,3.7,0c0,0-10.7-8.3-8.2-11.5s6.2,1.5,10,4.7c3.9,3.3,5.1,4.2,5.1,4.2l-11.1-10.8
								c0,0-3.1-2.8-0.4-5c2.8-2.3,6.9,3.4,8.8,4.6c2,1.2,12.9,11.6,12.9,11.6s-7.6-9.7-8.1-10.2s-7.4-5.7-4.8-8.6
								c2.6-3,9.1,4.2,11.3,5.9c2.2,1.6,10.3,11.4,12.1,12.4c1.8,1,5.1,3.8,7.1,2.9s-2.1-8.5-1.5-11.2
								C405.5,258.2,406.6,253,410.7,254.4z"/>
						</g>
					</g>
				</g>
			</g>
			<g>
				<g>
					<g>
						<g>
							<g>
								<path class="st16" d="M403.7,289.2c0.1-0.1-0.6-0.9-1-2.7c-0.4-1.7-0.2-4.2,0.8-6.7s2.3-4.6,3.1-6.3
									c0.4-0.8,0.5-1.6,0.5-2.1s-0.1-0.8-0.2-0.8s0,1.1-0.8,2.7s-2.3,3.7-3.3,6.3c-1.1,2.6-1.2,5.3-0.6,7.1
									C402.7,288.5,403.7,289.3,403.7,289.2z"/>
							</g>
						</g>
					</g>
				</g>
			</g>
			<g>
				<g>
					<g>
						<g>
							<g>
								<path class="st16" d="M383.8,283.4c0.1,0-0.4-1-1.8-2c-1.3-1-3.6-1.7-5.1-3.3c-0.8-0.9-1.3-1.9-1.8-2.8s-1.1-1.8-1.7-2.3
									c-1.2-1.2-2.4-1.3-2.4-1.2c0,0.1,1,0.4,2,1.6c0.5,0.6,1,1.4,1.5,2.3s1,2,1.9,3s2,1.6,2.9,2.1c1,0.5,1.8,0.9,2.5,1.2
									C383.1,282.6,383.7,283.4,383.8,283.4z"/>
							</g>
						</g>
					</g>
				</g>
			</g>
		</g>
		<g>
			<g>
				<polygon class="st4" points="465.4,450.4 556.8,450.4 556.8,417.3 465.4,407 				"/>
			</g>
			<g>
				<polygon class="st9" points="505,210.6 511.6,214.7 549.7,198.4 551.4,206.8 517,278.2 514.9,414.2 477.7,411.2 500.7,227.4 
									"/>
			</g>
			<g>
				<g>
					<path class="st4" d="M540.6,214.2c0,0-0.5,0.3-1.3,0.8c-1,0.5-2.2,1.2-3.7,2.1c-3.1,1.7-7.5,4.2-12.2,6.9
						c-2.1,1.2-4.1,2.4-6,3.5l-0.3,0.1l-0.1-0.2c-1.9-3.3-2.9-6.4-3.9-8.5c-0.5-1-0.8-1.9-1.1-2.4c-0.3-0.6-0.4-0.9-0.4-0.9
						s0.2,0.3,0.5,0.8s0.8,1.3,1.3,2.4c1,2,2.2,5.1,4.1,8.3l-0.4-0.1c1.8-1.1,3.8-2.3,6-3.5c4.7-2.7,9.1-5.1,12.3-6.8
						c1.6-0.8,2.9-1.5,3.8-1.9C540.1,214.4,540.6,214.1,540.6,214.2z"/>
				</g>
			</g>
			<g>
				<path class="st0" d="M497.3,220.9c-6.3,2.4-14.8,5.7-19.4,7.4c-2.5,0.9-4.7,2.5-6.4,4.5c-4.2,4.9-11.8,15.4-16.3,32.6
					c-6.1,23.4-12.6,40.9-12.6,40.9l-21.7-16.1L390.7,320c0,0,50.8,44.2,66.9,44l-10.9,86.5h31.2l25.8-229.7l1.5-10.3
					C504.5,210.8,498.7,218.9,497.3,220.9z"/>
			</g>
			<g>
				<g>
					<path class="st4" d="M468.5,249.8c0,0,0,0.1,0,0.3s-0.1,0.5-0.1,0.9c-0.1,0.9-0.2,2.1-0.4,3.6c-0.4,3.1-0.9,7.6-1.5,13.1
						c-1.2,11.1-2.9,26.3-4.5,43.2c-1.6,16.9-2.9,32.2-3.9,43.3c-0.5,5.5-0.9,10-1.1,13.1c-0.1,1.5-0.3,2.7-0.3,3.6
						c0,0.4-0.1,0.7-0.1,0.9c0,0.2,0,0.3-0.1,0.3c0,0,0-0.1,0-0.3c0-0.2,0-0.6,0-0.9c0.1-0.9,0.1-2.1,0.2-3.6
						c0.2-3.2,0.6-7.6,1-13.1c0.8-11.1,2.1-26.4,3.7-43.3s3.3-32.2,4.6-43.2c0.7-5.5,1.3-10,1.7-13.1c0.2-1.5,0.4-2.7,0.5-3.5
						c0.1-0.4,0.1-0.7,0.1-0.9C468.5,249.9,468.5,249.8,468.5,249.8z"/>
				</g>
			</g>
			<g>
				<g>
					<path class="st4" d="M561.6,336.6c-0.1,0.1-2.6-2.4-6.4-4.3c-3.8-1.9-7.3-2.3-7.3-2.5c0-0.1,0.9-0.1,2.3,0.2
						c1.4,0.2,3.3,0.8,5.2,1.7c1.9,1,3.5,2.1,4.6,3.1C561.1,335.9,561.6,336.6,561.6,336.6z"/>
				</g>
			</g>
			<g>
				<path class="st0" d="M589.1,235.6c0,0-7.7-6-15.5-12.3s-20.8-15.6-20.8-15.6l-2.3-7.8c0,0-6.9,7.2-12.9,20.3
					c-8.6,18.8-18.6,46.2-20.6,58l-12,172.3h89.1L573.4,328L589.1,235.6z"/>
			</g>
			<g>
				<g>
					<path class="st4" d="M516.4,289.2c0,0,0.1-0.3,0.4-0.8c0.3-0.6,0.7-1.4,1.3-2.4c1.2-2.1,2.8-5,4.8-8.6
						c4.1-7.3,9.8-17.3,16-28.4c0.3-0.5,0.6-1,0.8-1.5v0.2c-0.7-2.3-1.3-4.5-2-6.7l-0.1-0.2l0.2-0.1c1.6-1.2,3.2-2.3,4.8-3.4
						l-0.1,0.1c3-8.7,5.5-16.1,7.3-21.5c0.9-2.6,1.6-4.7,2.2-6.2c0.2-0.7,0.4-1.2,0.6-1.6c0.1-0.4,0.2-0.6,0.2-0.6s0,0.2-0.1,0.6
						c-0.1,0.4-0.3,1-0.5,1.7c-0.5,1.5-1.2,3.6-2,6.2c-1.8,5.4-4.2,12.8-7.1,21.5v0.1l-0.1,0.1c-1.5,1.1-3.1,2.2-4.8,3.4l0.1-0.3
						c0.6,2.2,1.3,4.4,2,6.7v0.1l-0.1,0.1c-0.3,0.5-0.6,1-0.8,1.5c-6.3,11-12,21-16.1,28.3c-2.1,3.6-3.8,6.5-5,8.5
						c-0.6,1-1,1.7-1.4,2.3C516.6,288.9,516.5,289.2,516.4,289.2z"/>
				</g>
			</g>
			<g>
				<g>
					<path class="st4" d="M495.4,293.3c0,0-0.1-0.3-0.2-0.8c-0.1-0.6-0.2-1.3-0.4-2.3c-0.3-2-0.8-4.8-1.3-8.3
						c-1.1-7.1-2.6-16.7-4.2-27.4c-0.2-1.1-0.3-2.2-0.5-3.3v-0.1V251c1.4-2.5,2.8-5,4.1-7.3l0.2,0.4c-1.4-0.5-2.7-0.9-4-1.3
						l-0.3-0.1l0.1-0.3c2.4-6.4,4.5-11.8,5.9-15.7c0.7-1.9,1.3-3.4,1.7-4.4c0.2-0.5,0.4-0.9,0.5-1.2s0.2-0.4,0.2-0.4s0,0.2-0.1,0.4
						c-0.1,0.3-0.2,0.7-0.4,1.2c-0.4,1.1-0.9,2.6-1.6,4.5c-1.4,3.9-3.4,9.4-5.7,15.8l-0.2-0.4c1.3,0.4,2.7,0.9,4,1.3l0.3,0.1
						l-0.2,0.3c-1.3,2.3-2.6,4.8-4,7.4v-0.2c0.2,1.1,0.3,2.2,0.5,3.3c1.6,10.7,3,20.3,4,27.4c0.5,3.5,0.9,6.3,1.1,8.3
						c0.1,0.9,0.2,1.7,0.3,2.3C495.4,293.1,495.5,293.3,495.4,293.3z"/>
				</g>
			</g>
			<g>
				<g>
					<path class="st4" d="M503.5,221.6c0.1,0,0.9,1.6,2.1,4.1h-0.5c0.5-1,1.2-2.1,1.9-3.2c1.2-1.9,2.4-3.6,3.2-4.9
						c0.8-1.2,1.3-2,1.4-2s-0.3,0.9-1,2.2s-1.9,3-3.1,5c-0.7,1.1-1.4,2.2-1.9,3.1l-0.3,0.5l-0.2-0.5
						C504,223.4,503.4,221.6,503.5,221.6z"/>
				</g>
			</g>
			<g>
				<g>
					<path class="st4" d="M493.2,412.4c0,0,0-0.2,0-0.5c0-0.4,0.1-0.9,0.1-1.5c0.1-1.3,0.3-3.3,0.5-5.7c0.4-5,1.1-12.2,1.9-21
						c1.6-17.8,3.9-42.3,6.4-69.4c2.6-27.1,4.9-51.6,6.6-69.4c0.9-8.9,1.6-16,2.1-21c0.3-2.5,0.5-4.4,0.6-5.7
						c0.1-0.6,0.1-1.1,0.2-1.5c0-0.3,0.1-0.5,0.1-0.5s0,0.2,0,0.5c0,0.4-0.1,0.9-0.1,1.5c-0.1,1.3-0.3,3.3-0.5,5.7
						c-0.4,5-1.1,12.2-1.9,21c-1.6,17.8-3.9,42.3-6.4,69.4c-2.6,27.1-4.9,51.6-6.6,69.4c-0.9,8.9-1.6,16-2.1,21
						c-0.3,2.5-0.5,4.4-0.6,5.7c-0.1,0.6-0.1,1.1-0.2,1.5C493.3,412.3,493.2,412.4,493.2,412.4z"/>
				</g>
			</g>
			<g class="st10">
				<polygon points="552,210.2 543.5,240.7 540,242.1 542.4,249.7 518.2,286.2 540,247.6 538,241 542.8,237.6 				"/>
			</g>
			<g class="st10">
				<polygon points="512.6,217.4 514.9,233.3 536.5,216.6 517.3,227.2 				"/>
			</g>
			<g class="st10">
				<path d="M456.6,372.1l-0.9,7.2c0,0,4.4,5.6,8.6,4.4c4.3-1.2,22-8.9,22-8.9l-0.3-2.7c0,0-10.4-4.3-11-4.1
					C474.5,368.2,456.6,372.1,456.6,372.1z"/>
			</g>
			<g class="st10">
				<path d="M490.8,388.2l0.5,6.6c0,0,32.2-3.7,46.1-9c0,0,27.1-10,34.8-19.5c-11,4.6-23.9,8.6-37.7,12.2L490.8,388.2z"/>
			</g>
		</g>
		<g>
			<g>
				<g>
					<g>
						<path class="st11" d="M516.1,342.2l-40.4-53.4c-0.9-1.1-2.4-1.6-3.7-1.1l-61.8,21.1c-2.2,0.7-3,3.5-1.5,5.2l50.3,60.5
							c0.9,1.1,2.4,1.5,3.7,1l57.8-21.1c2.1-0.8,2.9-3.4,1.4-5.2L516.1,342.2z"/>
					</g>
				</g>
				<g>
					<g>
						<path class="st4" d="M434.2,307c0,0.9,0.8,1.7,1.8,1.7c0.9,0,1.7-0.8,1.7-1.8c0-0.9-0.8-1.7-1.8-1.7
							C434.9,305.3,434.1,306.1,434.2,307z"/>
					</g>
				</g>
				<g>
					<g>
						<path class="st4" d="M446.7,302.8c0,0.9,0.8,1.7,1.8,1.7c0.9,0,1.7-0.8,1.7-1.8c0-0.9-0.8-1.7-1.8-1.7
							C447.4,301,446.6,301.8,446.7,302.8z"/>
					</g>
				</g>
			</g>
			<g>
				<g>
					<path class="st15" d="M482.5,351.6l-3.2-0.7c0,0-1.3-5.4-2.8-6.5s-15.9-7.1-19.1-8.7s-15.6-6.7-17.1-3.7
						c-1.6,3.4,3.5,6,6.2,7.2s10.6,3.9,9.1,5.8s-19.5,1.8-19.5,1.8l-2.1-2.4c0,0-3.2,3.2-2.6,6.3c0.5,3.1,1.9,5.1,1.9,5.1h1.3
						c0,0-1.2,1.9,0,3.7c1.2,1.8,3.6,4.1,3.6,4.1s2.2,4.2,8.3,5.6c0.7,0.2,29.3,1.6,29.3,1.6l10.4,2.3L482.5,351.6z"/>
				</g>
			</g>
			<g>
				<path class="st0" d="M557.5,250c-0.3,0.7-8.8,79.5-8.8,79.5l-66.5,20.2l6.3,39c0,0,89.8-16.1,99.1-32.9
					c7.9-14.3,9.8-75.2,10.2-93.2c0.1-4.4-0.4-8.7-1.5-13c-1.3-5-3.6-11.1-7.2-14C582.4,230.3,557.5,250,557.5,250z"/>
			</g>
			<g>
				<g>
					<path class="st4" d="M555.6,266.4c0,0,0,0.4-0.1,1.2c-0.1,0.8-0.2,1.9-0.3,3.4c-0.3,3-0.8,7.3-1.3,12.8
						c-1.2,11-2.9,26.8-4.9,45.7v0.2h-0.2c-19.2,5.8-42,12.8-66.5,20.2l0.2-0.3c0,0.3,0.1,0.5,0.1,0.8c2.2,13.4,4.3,26.3,6.2,38.2
						l-0.3-0.2c27-5.1,50.1-10.7,66.2-15.8c2-0.6,3.9-1.3,5.7-1.9c0.9-0.3,1.8-0.6,2.6-0.9s1.6-0.6,2.4-0.9c1.5-0.6,3-1.1,4.3-1.6
						c1.3-0.6,2.5-1.1,3.5-1.5c1.1-0.4,2-0.9,2.8-1.3s1.4-0.8,2-1c0.5-0.3,0.9-0.5,1.2-0.6s0.4-0.2,0.4-0.2s-0.1,0.1-0.4,0.2
						c-0.3,0.2-0.7,0.4-1.2,0.7c-0.5,0.3-1.2,0.7-1.9,1.1c-0.8,0.5-1.7,0.9-2.7,1.3c-1.1,0.5-2.2,1-3.5,1.6
						c-1.3,0.5-2.7,1.1-4.3,1.7c-0.8,0.3-1.6,0.6-2.4,0.9c-0.8,0.3-1.7,0.6-2.6,0.9c-1.8,0.6-3.7,1.3-5.7,1.9
						c-16.1,5.1-39.2,10.8-66.2,16l-0.3,0.1v-0.3c-1.9-11.9-4-24.9-6.2-38.2c0-0.3-0.1-0.5-0.1-0.8v-0.3l0.3-0.1
						c24.5-7.4,47.3-14.3,66.5-20.1l-0.2,0.2c2.1-18.9,3.9-34.7,5.1-45.7c0.6-5.5,1.1-9.8,1.5-12.8c0.2-1.5,0.3-2.6,0.4-3.4
						C555.6,266.8,555.6,266.4,555.6,266.4z"/>
				</g>
			</g>
			<g>
				<g>
					<path class="st4" d="M584.9,233.9c0,0.1-1.9,0-4.9,0.4c-1.5,0.2-3.2,0.6-5.1,1.2c-1.9,0.6-3.9,1.5-5.9,2.6
						c-2,1.2-3.7,2.5-5.2,3.8c-1.4,1.3-2.7,2.7-3.6,3.9c-1.8,2.4-2.6,4.1-2.7,4c0,0,0.1-0.4,0.5-1.2c0.2-0.4,0.4-0.8,0.7-1.4
						c0.3-0.5,0.7-1.1,1.1-1.7c0.9-1.3,2.1-2.6,3.5-4c1.5-1.4,3.2-2.7,5.3-3.9c2-1.2,4.1-2,6-2.6s3.7-0.9,5.2-1.1
						c0.8-0.1,1.4-0.1,2-0.1s1.1,0,1.5,0C584.4,233.8,584.9,233.9,584.9,233.9z"/>
				</g>
			</g>
		</g>
	</g>
</g>
</svg>
