<?xml version="1.0" encoding="utf-8"?>
<!-- Generator: Adobe Illustrator 26.0.0, SVG Export Plug-In . SVG Version: 6.00 Build 0)  -->
<svg version="1.1" id="Layer_1" xmlns="http://www.w3.org/2000/svg" xmlns:xlink="http://www.w3.org/1999/xlink" x="0px" y="0px"
	 viewBox="0 0 441.9 99.2" style="enable-background:new 0 0 441.9 99.2;" xml:space="preserve">
<style type="text/css">
	.st0{fill:#FFFFFF;}
</style>
<g>
	<path class="st0" d="M165.6,39.9c0.1-8.3-2.5-11.9-9.1-12c-6.4-0.1-9.2,3.7-9.3,11.7l-0.6,37.1c0,2.8-1.4,4.2-4,4.1
		c-2.7,0-3.9-1.4-3.9-4.3l0.6-36v-1c0.1-8-2.5-11.9-9-12s-9.3,3.5-9.5,11.7l-0.6,37.1c0,2.8-1.4,4.2-4,4.1c-2.7,0-3.9-1.4-3.9-4.3
		l0.7-38.5c0.2-11.6,5.9-17.4,17-17.2c6.3,0.1,10.8,2.2,13.4,6.3h0.2c2.7-4,7.3-6,13.7-5.9c11.1,0.2,16.6,6.1,16.4,17.7L173,77
		c0,2.8-1.4,4.2-4,4.1c-2.7,0-3.9-1.4-3.9-4.3L165.6,39.9z"/>
	<path class="st0" d="M195.2,60.7v4c0,6.9,2.8,9.8,8.9,9.8c4.6,0,6.8-1.7,8.2-5.1c0.6-1.5,1.8-2.3,3.4-2.3c2.3,0,3.7,1.5,3.7,3.6
		c0,0.7-0.1,1.4-0.3,2c-2.2,5.7-7.2,8.5-15,8.5c-10.9,0-16.4-5.1-16.4-15.3V50.3c0-10.1,5.3-15,16.1-15c10.7,0,16.1,5,16.1,15v5.4
		c0,3.4-1.7,5-5.1,5H195.2z M212.7,51.3c0-6.6-2.8-9.4-8.8-9.4c-6.1,0-8.8,2.8-8.8,9.4v2.8h16.5c0.7,0,1-0.3,1-0.9v-1.9H212.7z"/>
	<path class="st0" d="M264.7,65.9c0,10.2-5.5,15.3-16.4,15.3s-16.4-5.1-16.4-15.3V50.6c0-10.1,5.4-15.3,14.4-15.3
		c4.7,0,8.3,1.4,10.7,4h0.2V22c0-2.7,1.3-4,3.8-4s3.7,1.3,3.7,4L264.7,65.9L264.7,65.9z M257.2,51.8c0-6.8-2.8-9.7-8.9-9.7
		c-6.1,0-8.9,2.8-8.9,9.7v12.9c0,6.9,2.8,9.7,8.9,9.7c6.1,0,8.9-2.8,8.9-9.7V51.8z"/>
	<path class="st0" d="M279.3,38.7c0-12,6.4-18.1,19.1-18.1c10.9,0,17.1,4.6,18.6,13.8c0.1,0.3,0.1,0.8,0.1,1.3c0,2.7-1.3,4-4,4
		c-2.3,0-3.6-1.1-4-3.4c-0.9-6.1-4.3-8.6-10.7-8.6c-7.7,0-11.2,3.6-11.2,12.5v21.5c0,8.9,3.5,12.5,11.2,12.5c6.4,0,9.8-2.5,10.7-8.6
		c0.3-2.3,1.6-3.4,4-3.4c2.7,0,4,1.3,4,4c0,0.5,0,0.9-0.1,1.3c-1.5,9.2-7.7,13.8-18.6,13.8c-12.7,0-19.1-6-19.1-18.1V38.7z"/>
	<path class="st0" d="M330.6,22c0-2.7,1.2-4,3.7-4s3.8,1.3,3.8,4v54.9c0,2.7-1.3,4-3.8,4s-3.7-1.3-3.7-4V22z"/>
	<path class="st0" d="M379,39.6c0-2.7,1.2-4,3.7-4s3.8,1.3,3.8,4v26.6c0,10.1-5.3,15-16.1,15s-16.1-5-16.1-15V39.6
		c0-2.7,1.2-4,3.7-4s3.8,1.3,3.8,4V65c0,6.6,2.8,9.5,8.6,9.5s8.6-2.8,8.6-9.5V39.6z"/>
	<path class="st0" d="M434.8,65.9c0,10.2-5.5,15.3-16.4,15.3S402,76.1,402,65.9V22c0-2.7,1.2-4,3.7-4s3.8,1.3,3.8,4v17.3h0.2
		c2.3-2.7,5.9-4,10.7-4c9,0,14.4,5.2,14.4,15.3L434.8,65.9L434.8,65.9z M427.3,51.8c0-6.9-2.8-9.7-8.9-9.7s-8.9,2.9-8.9,9.7v12.9
		c0,6.9,2.8,9.7,8.9,9.7s8.9-2.8,8.9-9.7V51.8z"/>
	<path class="st0" d="M14.1,10.9c3.1-2.4,7-3.8,10.9-3.8c1.2,0,2.5,0,3.7,0c4.6,0.1,9.1,2.2,12.3,5.5c0.3,0.4,0.7,0.7,1,1
		c1.9-2.2,4.2-4,6.9-5.1c2.3-0.9,4.7-1.5,7.2-1.4c1.8,0,3.6-0.1,5.4,0.2c3.9,0.5,7.5,2.4,10.2,5.2c3.3,3.3,5.3,8,5.3,12.7
		c0,2.1,0,4.3,0,6.4c0,1.5-0.9,3-2.3,3.7c-1.5,0.8-3.5,0.5-4.7-0.7c-0.8-0.8-1.2-1.8-1.2-2.9c0-2.2,0-4.4,0-6.6
		c0-2.5-1.1-4.9-2.8-6.7c-1.8-1.9-4.5-3.1-7.2-3c-1.9,0-3.9-0.2-5.8,0.4c-3.9,1.2-6.9,4.9-7,9V58c0,1.1-0.1,2.2,0.2,3.3
		c0.6,3,2.6,5.5,5.3,6.9c1.4,0.7,3.1,1.1,4.7,1c1.6,0,3.2,0.1,4.8-0.3c3.1-0.7,5.8-3,7-5.9c0.5-1.2,0.7-2.5,0.7-3.7v-5.9
		c0-0.8,0.2-1.7,0.6-2.4c1-1.6,3.1-2.3,4.9-1.7c1.6,0.5,2.7,2.1,2.7,3.8c0,2,0,4.1,0,6.1c0,2.6-0.5,5.2-1.6,7.6
		c-2.1,4.6-6.2,8.3-11,9.8c-1.9,0.6-3.9,0.9-5.9,0.9c-1.8,0-3.5,0.1-5.3-0.2c-3.2-0.5-6.3-1.8-8.8-3.9c-4.1-3.3-6.6-8.5-6.7-13.7
		V26.8c0-1.3,0.1-2.6-0.3-3.9c-0.8-3.4-3.6-6.3-6.9-7.2c-1.8-0.5-3.7-0.3-5.5-0.4c-2.5,0-5.1,1-6.9,2.8c-1.9,1.8-3,4.4-3,7.1
		c0,9,0,18,0,26.9c0,1.1,0,2.3-0.6,3.3c-0.9,1.7-3.2,2.4-5,1.7c-1.6-0.5-2.7-2.1-2.7-3.8V27.1c0-1.4-0.1-2.9,0.1-4.3
		C7.8,18.1,10.4,13.7,14.1,10.9"/>
	<path class="st0" d="M10,85.2c0.8-0.1,1.7,0,2.5,0c20,0,40,0,60,0c0.8,0,1.7,0.2,2.4,0.8c1,0.8,1.5,2.1,1.2,3.3
		c-0.2,1.4-1.4,2.6-2.8,2.8c-0.9,0.1-1.7,0-2.6,0H10.6c-1,0-2.1-0.4-2.7-1.2c-0.9-1-1.1-2.7-0.4-3.9C8,86.1,9,85.4,10,85.2"/>
</g>
</svg>
